<?xml version="1.0" encoding="UTF-8"?>
<svg version="1.1" xmlns="http://www.w3.org/2000/svg" width="512" height="512">
<path d="M0 0 C0.65707947 0.00215515 1.31415894 0.0043103 1.9911499 0.00653076 C12.41912041 0.06125001 22.15246305 0.65122635 32.25 3.3125 C33.03487793 3.51117676 33.81975586 3.70985352 34.62841797 3.91455078 C66.05227053 12.03040359 66.05227053 12.03040359 71.25 20.3125 C71.146875 21.39660156 71.04375 22.48070313 70.9375 23.59765625 C70.87096223 27.22020965 70.87096223 27.22020965 72.73828125 29.00341797 C74.84706212 30.69914395 77.0052777 32.23898338 79.25 33.75 C80.013125 34.29076172 80.77625 34.83152344 81.5625 35.38867188 C83.44481715 36.71805836 85.33949183 38.02411375 87.25 39.3125 C87.91 38.9825 88.57 38.6525 89.25 38.3125 C92.57006934 37.78128891 95.07253005 37.64146874 98.06640625 39.34765625 C122.6335304 59.40140477 136.35342604 93.81947401 140.25 124.3125 C142.45664586 167.83060007 131.92661588 204.23160723 102.875 237.375 C88.5940684 252.97192188 69.47514587 266.53821604 49.25 273.3125 C48.26 273.3125 47.27 273.3125 46.25 273.3125 C47.91415014 277.02689402 47.91415014 277.02689402 49.57894897 280.74099731 C51.04422254 284.00936443 52.50760869 287.27855437 53.9675293 290.54931641 C56.6418693 296.53520675 59.32691223 302.51224325 62.1171875 308.4453125 C62.53492432 309.34217773 62.95266113 310.23904297 63.38305664 311.16308594 C64.14741208 312.79906922 64.92203534 314.43030996 65.70874023 316.05566406 C67.83620885 320.63852508 68.83282559 324.15033051 68.25 329.3125 C67.59 330.3025 66.93 331.2925 66.25 332.3125 C66.61276173 336.25011371 68.11771309 339.46074415 69.8125 343 C72.25 348.10286827 72.25 348.10286827 72.25 350.3125 C73.24 349.9825 74.23 349.6525 75.25 349.3125 C78.18359375 349.7890625 78.18359375 349.7890625 81.25 351.3125 C82.90341781 353.81804092 84.1083172 355.98245168 85.3125 358.6875 C85.64830078 359.40486328 85.98410156 360.12222656 86.33007812 360.86132812 C87.32371569 363.00308433 88.28701356 365.15683326 89.25 367.3125 C90.05244141 369.01792969 90.05244141 369.01792969 90.87109375 370.7578125 C93.84585725 377.34779851 95.74099181 382.35714488 93.5859375 389.51953125 C88.38947969 402.78179532 76.32894282 410.06384234 64 416 C28.33512203 431.08499926 -11.40898954 434.75286491 -49.75 434.625 C-50.91597717 434.62284485 -52.08195435 434.6206897 -53.28326416 434.61846924 C-70.95341312 434.56613072 -88.27476017 434.14322943 -105.75 431.3125 C-107.62921143 431.01448486 -107.62921143 431.01448486 -109.54638672 430.71044922 C-137.00216134 426.26508121 -169.55401659 420.29006699 -188.75 398.3125 C-192.34725949 392.9215406 -194.61560871 387.82610696 -194.75 381.3125 C-191.87146201 370.98480314 -186.49423877 361.14263399 -181.875 351.5 C-180.49937895 348.62001636 -179.12695627 345.73853734 -177.7578125 342.85546875 C-177.42493225 342.15477264 -177.092052 341.45407654 -176.74908447 340.73214722 C-173.2527432 333.33024133 -169.98442242 325.83180309 -166.75 318.3125 C-174.20568379 321.88519984 -181.35852991 325.76340387 -188.45776367 329.98999023 C-196.56708166 334.81673186 -204.74860184 339.51630496 -212.92822266 344.22241211 C-213.99862793 344.83866455 -215.0690332 345.45491699 -216.171875 346.08984375 C-217.12674805 346.63890381 -218.08162109 347.18796387 -219.06542969 347.75366211 C-221.75643254 349.2705564 -221.75643254 349.2705564 -224.22363281 351.01391602 C-227.36898621 352.63066657 -229.24918192 352.72509138 -232.75 352.3125 C-235.45629883 351.18603516 -235.45629883 351.18603516 -238.20703125 349.6015625 C-239.22788818 349.02156494 -240.24874512 348.44156738 -241.30053711 347.84399414 C-242.37698486 347.21485107 -243.45343262 346.58570801 -244.5625 345.9375 C-245.68470947 345.29482178 -246.80691895 344.65214355 -247.96313477 343.98999023 C-251.23390949 342.11169337 -254.49384725 340.21600871 -257.75 338.3125 C-258.54438477 337.84956543 -259.33876953 337.38663086 -260.15722656 336.90966797 C-263.51884506 334.94755173 -266.87112824 332.97025906 -270.21875 330.984375 C-275.84867855 327.65248092 -281.5191917 324.39102327 -287.1875 321.125 C-288.84833618 320.16799194 -288.84833618 320.16799194 -290.54272461 319.19165039 C-292.81337068 317.88360523 -295.08412358 316.57574552 -297.35498047 315.26806641 C-303.89820118 311.49910352 -310.43780234 307.72386501 -316.97802734 303.94970703 C-322.50623916 300.75987294 -328.03542525 297.5717492 -333.56640625 294.38671875 C-338.98776945 291.26452482 -344.40531554 288.13579464 -349.82080078 285.00341797 C-352.57375124 283.41424187 -355.3313302 281.83339872 -358.08984375 280.25390625 C-359.64343973 279.35713552 -361.19684087 278.46002712 -362.75 277.5625 C-363.44424072 277.16828857 -364.13848145 276.77407715 -364.85375977 276.36791992 C-367.97144787 274.5555906 -369.71425541 273.36611688 -371.75 270.3125 C-372.01006222 267.40889835 -372.01006222 267.40889835 -372.02415466 263.7905426 C-372.02939134 263.12518256 -372.03462802 262.45982251 -372.04002339 261.77430004 C-372.05504936 259.54030948 -372.05572909 257.30654743 -372.05639648 255.07250977 C-372.06401615 253.47266248 -372.07244332 251.87281886 -372.08161926 250.27297974 C-372.10358815 245.92384692 -372.11236617 241.57478442 -372.11744571 237.22560239 C-372.12108597 234.50971149 -372.12732425 231.7938391 -372.1344471 229.07795525 C-372.15894834 219.60689355 -372.17199528 210.13588669 -372.17553711 200.66479492 C-372.17917459 191.82997784 -372.20908328 182.99550769 -372.25094169 174.1607967 C-372.28560162 166.58025719 -372.30108479 158.99983291 -372.30178314 151.41921467 C-372.30257733 146.88955137 -372.3113807 142.36024145 -372.33978081 137.83065987 C-372.36588866 133.5714002 -372.36820792 129.31278878 -372.35212517 125.05348587 C-372.35030492 123.48935601 -372.35705322 121.92518949 -372.37294388 120.3611393 C-372.39330542 118.22713307 -372.38291581 116.09541634 -372.36473083 113.96144104 C-372.36674216 112.76700662 -372.36875349 111.57257219 -372.37082577 110.34194279 C-371.75 107.3125 -371.75 107.3125 -369.37242222 104.9974966 C-366.74886269 103.31176924 -364.12816954 101.67608464 -361.41796875 100.1328125 C-360.38494629 99.54121338 -359.35192383 98.94961426 -358.28759766 98.34008789 C-357.18206543 97.71223389 -356.0765332 97.08437988 -354.9375 96.4375 C-353.1730653 95.42904365 -351.40953681 94.41901506 -349.64605713 93.40888977 C-348.44267393 92.71968589 -347.23901778 92.0309584 -346.03509521 91.34269714 C-340.29274979 88.05815149 -334.58264963 84.71941994 -328.875 81.375 C-319.6047952 75.95218032 -310.29062511 70.60925538 -300.95953369 65.29226685 C-291.89761065 60.12748754 -282.87425158 54.90001472 -273.87426758 49.62792969 C-264.53953487 44.16880238 -255.14891053 38.80902352 -245.74804688 33.46484375 C-244.61818359 32.82160156 -243.48832031 32.17835937 -242.32421875 31.515625 C-240.81734497 30.65952637 -240.81734497 30.65952637 -239.2800293 29.78613281 C-237.3990112 28.690521 -235.56123309 27.51998873 -233.75 26.3125 C-226.48725202 25.07182032 -221.40805686 28.84413597 -215.3125 32.4375 C-214.21284912 33.06986572 -213.11319824 33.70223145 -211.98022461 34.35375977 C-208.56117562 36.32498231 -205.15488193 38.31692678 -201.75 40.3125 C-199.72962916 41.48647338 -197.70881395 42.65968244 -195.6875 43.83203125 C-191.73834518 46.12672632 -187.79512514 48.43122665 -183.85546875 50.7421875 C-177.4647707 54.48706832 -171.04571157 58.18189287 -164.625 61.875 C-152.94621811 68.59725803 -141.33287319 75.42648013 -129.75 82.3125 C-127.44862105 79.33744762 -125.61616512 76.30416432 -123.8449707 72.98217773 C-119.01262114 63.95855954 -113.30019996 56.15227057 -106.75 48.3125 C-105.88375 47.23355469 -105.88375 47.23355469 -105 46.1328125 C-101.34785109 41.66686954 -97.19592554 37.97468867 -92.75 34.3125 C-91.739375 33.46429688 -90.72875 32.61609375 -89.6875 31.7421875 C-64.21472276 10.76025423 -32.96827026 -0.14810544 0 0 Z " fill="#010101" transform="translate(371.75,38.6875)"/>
<path d="M0 0 C3.62133789 1.06176758 3.62133789 1.06176758 5.77587891 4.05517578 C6.39877428 5.3742626 6.99273939 6.70725947 7.56274414 8.05004883 C7.89303116 8.76711502 8.22331818 9.48418121 8.56361389 10.22297668 C9.25806722 11.73701219 9.94095022 13.25640204 10.612854 14.78057861 C11.57249673 16.95128896 12.56482928 19.10266099 13.57397461 21.25073242 C15.59964915 25.5697193 17.58036821 29.90850139 19.55883789 34.24926758 C20.2968235 35.86268409 21.03511201 37.47596208 21.77368164 39.08911133 C23.30072081 42.425008 24.8264843 45.76148351 26.35131836 49.09838867 C29.57966605 56.16056082 32.82401401 63.21537251 36.06790161 70.27041626 C37.83643943 74.11719992 39.60382777 77.96451164 41.37133789 81.81176758 C42.07966578 83.35343675 42.78799911 84.89510342 43.49633789 86.43676758 C64.74633789 132.68676759 64.74633789 132.68676759 65.8086853 134.99894714 C66.51751546 136.54168735 67.22635743 138.08442212 67.93521118 139.62715149 C69.69853971 143.46484875 71.46166742 147.30263801 73.22436523 151.140625 C76.50088458 158.27416061 79.77928257 165.40681323 83.06463623 172.5362854 C84.59235983 175.85188115 86.11897175 179.16798822 87.64550781 182.48413086 C88.36354432 184.04314114 89.08210679 185.60190932 89.80126953 187.16040039 C90.80779529 189.34172556 91.81264202 191.52381394 92.81665039 193.70629883 C93.13543152 194.39801178 93.45421265 195.08972473 93.78265381 195.80239868 C95.42185157 199.37723145 97.01909005 202.9651392 98.56176758 206.58276367 C98.87540253 207.31540939 99.18903748 208.04805511 99.51217651 208.80290222 C100.10464139 210.19392348 100.69091575 211.58760414 101.26980591 212.98432922 C103.17029727 217.61020018 103.17029727 217.61020018 106.62133789 221.06176758 C107.91942383 221.13782227 109.21750977 221.21387695 110.55493164 221.29223633 C112.68725586 221.48901367 112.68725586 221.48901367 114.62133789 222.06176758 C116.50939352 224.66609057 117.5408709 226.4720545 118.68383789 229.37426758 C119.14306641 230.39037109 119.14306641 230.39037109 119.61157227 231.42700195 C120.83042423 234.26728796 121.70113729 236.43617967 121.30493164 239.54223633 C121.0793457 240.04368164 120.85375977 240.54512695 120.62133789 241.06176758 C119.96133789 241.06176758 119.30133789 241.06176758 118.62133789 241.06176758 C118.06461178 248.70128702 119.72104031 253.53159463 123.12133789 260.31176758 C123.97363584 262.041958 124.81771124 263.77622882 125.65258789 265.51489258 C126.02963867 266.26931641 126.40668945 267.02374023 126.79516602 267.80102539 C127.75462392 270.42649236 127.91451979 272.28549169 127.62133789 275.06176758 C118.07955859 289.93571766 94.24395311 296.47928373 77.86352539 300.15942383 C76.44999711 300.46270574 75.0359008 300.7633486 73.62133789 301.06176758 C72.82888672 301.23305176 72.03643555 301.40433594 71.2199707 301.58081055 C58.07643782 304.38567803 45.01548784 306.06000417 31.62133789 307.06176758 C30.27367249 307.17493995 28.92601562 307.28821386 27.57836914 307.40161133 C4.93152243 309.05980572 -17.81336301 308.41575321 -40.37866211 306.06176758 C-41.43988281 305.95461426 -42.50110352 305.84746094 -43.59448242 305.73706055 C-69.65173114 303.05641816 -104.41315355 299.06191089 -124.37866211 280.06176758 C-125.21204102 279.27092773 -125.21204102 279.27092773 -126.06225586 278.46411133 C-127.50366211 276.93676758 -127.50366211 276.93676758 -129.37866211 274.06176758 C-128.99651915 269.92932219 -127.3507539 266.4692047 -125.63256836 262.72583008 C-125.35030396 262.10716064 -125.06803955 261.48849121 -124.77722168 260.85107422 C-123.83699136 258.79391578 -122.88912685 256.74037202 -121.94116211 254.68676758 C-121.26878858 253.21999909 -120.59684172 251.75303496 -119.92529297 250.28588867 C-117.75089783 245.5409037 -115.56531846 240.80111168 -113.37866211 236.06176758 C-112.64033899 234.46022438 -111.90205767 232.85866191 -111.16381836 231.25708008 C-108.16041766 224.7428222 -105.15477131 218.22960632 -102.14453125 211.71850586 C-97.19530494 201.01194114 -92.27497021 190.29262777 -87.37866211 179.56176758 C-81.36617136 166.38551787 -75.3093589 153.23023174 -69.2331543 140.08325195 C-63.92119729 128.58837658 -58.6355804 117.08191354 -53.37866211 105.56176758 C-47.37016999 92.3946034 -41.31941098 79.24743406 -35.24523926 66.11044312 C-31.10794867 57.16200371 -26.98196423 48.2087788 -22.89428711 39.23754883 C-22.5324231 38.44375824 -22.17055908 37.64996765 -21.79772949 36.8321228 C-20.08857384 33.08192676 -18.38191492 29.3306276 -16.67944336 25.57739258 C-5.09559645 0.093156 -5.09559645 0.093156 0 0 Z " fill="#FCA65E" transform="translate(322.378662109375,149.938232421875)"/>
<path d="M0 0 C2.9023426 1.09152226 5.17669016 1.11686089 8.25390625 0.84765625 C9.24390625 0.18765625 10.23390625 -0.47234375 11.25390625 -1.15234375 C18.28726409 -0.83651076 24.65803592 4.90961163 29.25390625 9.84765625 C29.75421181 12.78962399 29.4004416 15.05778348 29.015625 18.00390625 C29.44887769 23.17452852 33.73424894 26.27274915 37.2421875 29.765625 C50.06637725 42.54929598 58.29184726 60.66976528 63.25390625 77.84765625 C63.60324219 78.95109375 63.95257813 80.05453125 64.3125 81.19140625 C72.84266902 114.32102537 65.43773225 149.05421124 48.38671875 178.01953125 C34.16470717 200.32625481 10.44763731 223.32273889 -16.24609375 229.34765625 C-17.40109375 229.51265625 -18.55609375 229.67765625 -19.74609375 229.84765625 C-24.24871342 221.00298202 -28.52968975 212.08900643 -32.59713745 203.03521729 C-34.20860506 199.44991109 -35.83070609 195.86942353 -37.453125 192.2890625 C-37.96897911 191.15044769 -37.96897911 191.15044769 -38.49525452 189.98883057 C-42.66926715 180.79113993 -46.92769613 171.6326624 -51.18359375 162.47265625 C-56.86625952 150.23842954 -62.52522251 137.99427522 -68.12365723 125.72125244 C-69.10989388 123.55970316 -70.0972136 121.3986523 -71.08496094 119.23779297 C-71.40395355 118.53992676 -71.72294617 117.84206055 -72.05160522 117.12304688 C-72.68506426 115.73729333 -73.31854783 114.35155099 -73.95205688 112.96582031 C-75.50994344 109.55700709 -77.06527407 106.14706661 -78.61572266 102.73486328 C-80.10328597 99.46160016 -81.59794385 96.19166632 -83.09771729 92.92398071 C-83.90345904 91.16349822 -84.70163516 89.39955909 -85.49951172 87.63549805 C-89.75225751 77.78306473 -89.75225751 77.78306473 -97.10546875 70.2890625 C-103.41828728 67.96817334 -109.48877977 66.00256813 -115.9453125 68.80078125 C-123.63292579 73.29114317 -126.90025516 79.76292407 -130.55859375 87.59765625 C-131.03014893 88.59571289 -131.5017041 89.59376953 -131.98754883 90.62207031 C-137.68249624 102.7363265 -143.18599673 114.9394314 -148.70352173 127.13517761 C-152.6731704 135.90432551 -156.67880942 144.65701398 -160.68359375 153.41015625 C-161.39543988 154.9664652 -162.10727293 156.52278014 -162.8190918 158.07910156 C-164.46104103 161.66879594 -166.10342548 165.25829086 -167.74609375 168.84765625 C-168.40609375 168.84765625 -169.06609375 168.84765625 -169.74609375 168.84765625 C-177.68334751 149.90697673 -183.3888069 132.78597023 -183.30859375 111.97265625 C-183.30910736 111.26509186 -183.30962097 110.55752747 -183.31015015 109.82852173 C-183.25542671 91.98793259 -180.06106715 73.81062657 -171.74609375 57.84765625 C-171.43833008 57.24727539 -171.13056641 56.64689453 -170.81347656 56.02832031 C-155.30178962 26.08030554 -129.91001537 2.41866808 -97.49609375 -8.15234375 C-95.25317865 -8.84247147 -93.00329603 -9.51048528 -90.74609375 -10.15234375 C-89.55757813 -10.50039063 -88.3690625 -10.8484375 -87.14453125 -11.20703125 C-58.81922124 -19.08602553 -25.75782828 -13.55445786 0 0 Z " fill="#EC708A" transform="translate(429.74609375,68.15234375)"/>
<path d="M0 0 C2.48168945 1.17651367 2.48168945 1.17651367 5.11328125 2.66796875 C6.10126709 3.22411865 7.08925293 3.78026855 8.10717773 4.35327148 C9.16493408 4.95856689 10.22269043 5.5638623 11.3125 6.1875 C12.42117432 6.815354 13.52984863 7.44320801 14.67211914 8.09008789 C24.11800448 13.45531863 33.50406526 18.9231028 42.875 24.41796875 C49.37705117 28.22802756 55.90645404 31.98993071 62.4375 35.75 C65.63680513 37.5954789 68.83562991 39.44178651 72.03417969 41.28857422 C73.94815997 42.393036 75.86282434 43.49631354 77.77832031 44.59814453 C80.20938948 45.99780959 82.63652845 47.40402382 85.0625 48.8125 C85.7649585 49.21500977 86.46741699 49.61751953 87.19116211 50.03222656 C91.88552908 52.77105816 91.88552908 52.77105816 93 55 C92.62850538 56.74453872 92.17597858 58.4720373 91.6875 60.1875 C90.03722264 66.31498722 89.33713936 72.35103165 88.8203125 78.65234375 C87.59486285 83.65334541 84.49471486 86.01369975 80.2746582 88.79833984 C79.29327881 89.34699707 78.31189941 89.8956543 77.30078125 90.4609375 C76.18751465 91.08943604 75.07424805 91.71793457 73.92724609 92.36547852 C72.72234406 93.03534299 71.51742833 93.70518283 70.3125 94.375 C69.05497159 95.082311 67.79798111 95.79057916 66.54150391 96.49975586 C63.95744507 97.95786112 61.37161204 99.41274337 58.78466797 100.86572266 C53.1218565 104.05234716 47.49877378 107.30762985 41.875 110.5625 C39.75397823 111.78788502 37.63288419 113.01314495 35.51171875 114.23828125 C33.92689697 115.15407959 33.92689697 115.15407959 32.31005859 116.08837891 C28.79766647 118.11685142 25.28380929 120.14276619 21.76953125 122.16796875 C20.57242346 122.85798299 19.37532054 123.54800568 18.17822266 124.23803711 C15.90597028 125.54780755 13.6334741 126.85715172 11.36083984 128.16625977 C10.33812988 128.75592529 9.31541992 129.34559082 8.26171875 129.953125 C6.91533325 130.72897949 6.91533325 130.72897949 5.54174805 131.52050781 C2.95437211 132.96439795 2.95437211 132.96439795 0.54614258 134.81542969 C-2 136 -2 136 -4.97753906 135.37182617 C-7.87700239 134.05582581 -10.611935 132.65940787 -13.359375 131.05078125 C-14.890177 130.16060303 -14.890177 130.16060303 -16.4519043 129.25244141 C-17.54027588 128.61226074 -18.62864746 127.97208008 -19.75 127.3125 C-21.48826286 126.29920043 -23.22653126 125.28591023 -24.96513367 124.27319336 C-26.77079556 123.22062351 -28.57510952 122.16576778 -30.37939453 121.11083984 C-33.89955762 119.05535215 -37.43073512 117.0197059 -40.96484375 114.98828125 C-42.08431396 114.34479736 -43.20378418 113.70131348 -44.35717773 113.03833008 C-46.56345778 111.77078248 -48.7699975 110.50368677 -50.97680664 109.23706055 C-55.5938503 106.57844038 -60.1943397 103.9077125 -64.71875 101.09375 C-65.40364502 100.6694873 -66.08854004 100.24522461 -66.79418945 99.80810547 C-68.51972068 98.72984314 -70.23505496 97.63530617 -71.94921875 96.5390625 C-75.3852495 94.80564878 -78.17224388 94.24784032 -82 94 C-84.55851025 94.81452316 -84.55851025 94.81452316 -86 97 C-86.75011367 100.45728358 -86.75011367 100.45728358 -86 104 C-82.85638182 106.8868969 -79.43506991 109.03582539 -75.73828125 111.14453125 C-74.71468506 111.73145752 -73.69108887 112.31838379 -72.63647461 112.9230957 C-71.53956299 113.54659912 -70.44265137 114.17010254 -69.3125 114.8125 C-67.56521663 115.81307476 -65.81793682 116.8136558 -64.07087708 117.81462097 C-62.25730744 118.85298531 -60.44271303 119.88953985 -58.62792969 120.92578125 C-52.88831634 124.20490176 -47.16299785 127.50880734 -41.4375 130.8125 C-40.36161621 131.43310303 -39.28573242 132.05370605 -38.17724609 132.69311523 C-31.75306895 136.40180149 -25.33611939 140.12236906 -18.9375 143.875 C-18.23488037 144.28596924 -17.53226074 144.69693848 -16.80834961 145.12036133 C-12.12047717 147.87952283 -12.12047717 147.87952283 -11 149 C-10.90365541 150.77160318 -10.87812519 152.54708408 -10.87974548 154.32130432 C-10.87768349 156.05247498 -10.87768349 156.05247498 -10.87557983 157.81861877 C-10.88097275 159.73480263 -10.88097275 159.73480263 -10.88647461 161.68969727 C-10.88675648 163.03958128 -10.88659875 164.38946544 -10.8860321 165.73934937 C-10.88574413 169.41480608 -10.89164084 173.09023043 -10.89860606 176.7656796 C-10.90483962 180.60273149 -10.9054434 184.43978404 -10.90663147 188.27684021 C-10.90974478 195.54771218 -10.91795817 202.81856919 -10.92798096 210.08943456 C-10.9391421 218.36499352 -10.94465255 226.64055318 -10.94967639 234.91611779 C-10.96014078 251.94408719 -10.97774022 268.97204202 -11 286 C-14.93195472 284.7282356 -18.36655837 283.38267032 -21.921875 281.26953125 C-22.85112793 280.72176025 -23.78038086 280.17398926 -24.73779297 279.60961914 C-25.73182129 279.01656982 -26.72584961 278.42352051 -27.75 277.8125 C-29.91367549 276.53580222 -32.07775166 275.25978329 -34.2421875 273.984375 C-35.91619629 272.9953418 -35.91619629 272.9953418 -37.62402344 271.98632812 C-43.0212633 268.81074644 -48.44764 265.6862344 -53.875 262.5625 C-56.05991376 261.30341652 -58.24480949 260.04430177 -60.4296875 258.78515625 C-61.51475586 258.16012207 -62.59982422 257.53508789 -63.71777344 256.89111328 C-70.21847963 253.14561565 -76.71625032 249.39502735 -83.21435547 245.64501953 C-88.23653702 242.74705111 -93.25927066 239.85005713 -98.28442383 236.95724487 C-100.05045522 235.94052802 -101.81627431 234.92344342 -103.58203125 233.90625 C-105.78734155 232.63599127 -107.99304216 231.36640982 -110.19921875 230.09765625 C-128.37487019 219.62512981 -128.37487019 219.62512981 -130 218 C-130.09634459 216.22839682 -130.12187481 214.45291592 -130.12025452 212.67869568 C-130.12162918 211.52458191 -130.12300385 210.37046814 -130.12442017 209.18138123 C-130.12082489 207.90392532 -130.11722961 206.62646942 -130.11352539 205.31030273 C-130.11324352 203.96041872 -130.11340125 202.61053456 -130.1139679 201.26065063 C-130.11425587 197.58519392 -130.10835916 193.90976957 -130.10139394 190.2343204 C-130.09516038 186.39726851 -130.0945566 182.56021596 -130.09336853 178.72315979 C-130.09025522 171.45228782 -130.08204183 164.18143081 -130.07201904 156.91056544 C-130.0608579 148.63500648 -130.05534745 140.35944682 -130.05032361 132.08388221 C-130.03985922 115.05591281 -130.02225978 98.02795798 -130 81 C-124.53339376 82.72548901 -119.95838359 85.24548362 -115.12304688 88.25390625 C-111.60884748 90.35549756 -109.11890595 91.5831426 -105 91 C-103.04374022 90.04451019 -103.04374022 90.04451019 -102 88 C-101.5 84.5 -101.5 84.5 -102 81 C-103.98746813 78.55807915 -106.30537972 77.08635911 -109.01171875 75.51953125 C-109.76904297 75.07802734 -110.52636719 74.63652344 -111.30664062 74.18164062 C-112.48516602 73.50391602 -112.48516602 73.50391602 -113.6875 72.8125 C-114.48478516 72.34908203 -115.28207031 71.88566406 -116.10351562 71.40820312 C-118.06663487 70.26794823 -120.03214871 69.13206227 -122 68 C-119.22262654 65.01114732 -116.56071009 62.98949092 -112.984375 61.0390625 C-111.9931665 60.49258057 -111.00195801 59.94609863 -109.98071289 59.38305664 C-108.91457764 58.80289795 -107.84844238 58.22273926 -106.75 57.625 C-104.47166234 56.36768476 -102.19434262 55.10852346 -99.91796875 53.84765625 C-99.33844955 53.52721848 -98.75893036 53.2067807 -98.16184998 52.87663269 C-92.4118589 49.69025847 -86.73201056 46.389351 -81.0625 43.0625 C-79.07168508 41.89571304 -77.080799 40.7290475 -75.08984375 39.5625 C-73.59493408 38.68658203 -73.59493408 38.68658203 -72.06982422 37.79296875 C-66.76672737 34.69562954 -61.44603906 31.62888176 -56.125 28.5625 C-55.05499756 27.94576416 -53.98499512 27.32902832 -52.88256836 26.69360352 C-50.70306422 25.43764853 -48.52345736 24.18187179 -46.34375 22.92626953 C-41.73222575 20.26965984 -37.1214786 17.61170443 -32.51123047 14.95288086 C-30.33335118 13.69687102 -28.15530494 12.44115061 -25.97705078 11.18579102 C-24.97657715 10.60885498 -23.97610352 10.03191895 -22.9453125 9.4375 C-21.96981445 8.87933594 -20.99431641 8.32117188 -19.98925781 7.74609375 C-17.89126259 6.52060683 -15.81389595 5.25944301 -13.75292969 3.97265625 C-12.69750977 3.32167969 -11.64208984 2.67070313 -10.5546875 2 C-9.60835449 1.401875 -8.66202148 0.80375 -7.68701172 0.1875 C-4.47703119 -1.23112123 -3.28019137 -1.13334547 0 0 Z " fill="#6CB2CD" transform="translate(145,83)"/>
<path d="M0 0 C2.48168945 1.17651367 2.48168945 1.17651367 5.11328125 2.66796875 C6.10126709 3.22411865 7.08925293 3.78026855 8.10717773 4.35327148 C9.16493408 4.95856689 10.22269043 5.5638623 11.3125 6.1875 C12.42117432 6.815354 13.52984863 7.44320801 14.67211914 8.09008789 C24.11800448 13.45531863 33.50406526 18.9231028 42.875 24.41796875 C49.37705117 28.22802756 55.90645404 31.98993071 62.4375 35.75 C65.63680513 37.5954789 68.83562991 39.44178651 72.03417969 41.28857422 C73.94815997 42.393036 75.86282434 43.49631354 77.77832031 44.59814453 C80.20938948 45.99780959 82.63652845 47.40402382 85.0625 48.8125 C85.7649585 49.21500977 86.46741699 49.61751953 87.19116211 50.03222656 C91.88552908 52.77105816 91.88552908 52.77105816 93 55 C92.62850538 56.74453872 92.17597858 58.4720373 91.6875 60.1875 C90.03722264 66.31498722 89.33713936 72.35103165 88.8203125 78.65234375 C87.59486285 83.65334541 84.49471486 86.01369975 80.2746582 88.79833984 C79.29327881 89.34699707 78.31189941 89.8956543 77.30078125 90.4609375 C76.18751465 91.08943604 75.07424805 91.71793457 73.92724609 92.36547852 C72.72234406 93.03534299 71.51742833 93.70518283 70.3125 94.375 C69.05497159 95.082311 67.79798111 95.79057916 66.54150391 96.49975586 C63.95744507 97.95786112 61.37161204 99.41274337 58.78466797 100.86572266 C53.1218565 104.05234716 47.49877378 107.30762985 41.875 110.5625 C39.75397823 111.78788502 37.63288419 113.01314495 35.51171875 114.23828125 C33.92689697 115.15407959 33.92689697 115.15407959 32.31005859 116.08837891 C28.79766647 118.11685142 25.28380929 120.14276619 21.76953125 122.16796875 C20.57242346 122.85798299 19.37532054 123.54800568 18.17822266 124.23803711 C15.90597028 125.54780755 13.6334741 126.85715172 11.36083984 128.16625977 C10.33812988 128.75592529 9.31541992 129.34559082 8.26171875 129.953125 C6.91533325 130.72897949 6.91533325 130.72897949 5.54174805 131.52050781 C2.95437211 132.96439795 2.95437211 132.96439795 0.54614258 134.81542969 C-2 136 -2 136 -4.97753906 135.37182617 C-7.87700239 134.05582581 -10.611935 132.65940787 -13.359375 131.05078125 C-14.890177 130.16060303 -14.890177 130.16060303 -16.4519043 129.25244141 C-17.54027588 128.61226074 -18.62864746 127.97208008 -19.75 127.3125 C-21.48826286 126.29920043 -23.22653126 125.28591023 -24.96513367 124.27319336 C-26.77079556 123.22062351 -28.57510952 122.16576778 -30.37939453 121.11083984 C-33.89955762 119.05535215 -37.43073512 117.0197059 -40.96484375 114.98828125 C-42.08431396 114.34479736 -43.20378418 113.70131348 -44.35717773 113.03833008 C-46.56345778 111.77078248 -48.7699975 110.50368677 -50.97680664 109.23706055 C-55.5938503 106.57844038 -60.1943397 103.9077125 -64.71875 101.09375 C-65.40364502 100.6694873 -66.08854004 100.24522461 -66.79418945 99.80810547 C-68.51972068 98.72984314 -70.23505496 97.63530617 -71.94921875 96.5390625 C-75.40839707 94.79397126 -78.13641602 94.17415918 -82 94 C-82.99 94.66 -83.98 95.32 -85 96 C-89.2092772 96 -92.55979991 94.44221231 -96.25 92.5625 C-97.10078125 92.13066406 -97.9515625 91.69882813 -98.828125 91.25390625 C-101.37392351 88.61195348 -101.29671123 87.69384602 -101.6953125 84.16015625 C-102.20785384 80.92990578 -102.53955696 79.44009165 -104.92773438 77.1574707 C-107.43493332 75.56420739 -109.96364849 74.19410466 -112.625 72.875 C-113.5221875 72.39546875 -114.419375 71.9159375 -115.34375 71.421875 C-117.54818387 70.24930379 -119.76418576 69.11121307 -122 68 C-119.22262654 65.01114732 -116.56071009 62.98949092 -112.984375 61.0390625 C-111.9931665 60.49258057 -111.00195801 59.94609863 -109.98071289 59.38305664 C-108.91457764 58.80289795 -107.84844238 58.22273926 -106.75 57.625 C-104.47166234 56.36768476 -102.19434262 55.10852346 -99.91796875 53.84765625 C-99.33844955 53.52721848 -98.75893036 53.2067807 -98.16184998 52.87663269 C-92.4118589 49.69025847 -86.73201056 46.389351 -81.0625 43.0625 C-79.07168508 41.89571304 -77.080799 40.7290475 -75.08984375 39.5625 C-73.59493408 38.68658203 -73.59493408 38.68658203 -72.06982422 37.79296875 C-66.76672737 34.69562954 -61.44603906 31.62888176 -56.125 28.5625 C-55.05499756 27.94576416 -53.98499512 27.32902832 -52.88256836 26.69360352 C-50.70306422 25.43764853 -48.52345736 24.18187179 -46.34375 22.92626953 C-41.73222575 20.26965984 -37.1214786 17.61170443 -32.51123047 14.95288086 C-30.33335118 13.69687102 -28.15530494 12.44115061 -25.97705078 11.18579102 C-24.97657715 10.60885498 -23.97610352 10.03191895 -22.9453125 9.4375 C-21.96981445 8.87933594 -20.99431641 8.32117188 -19.98925781 7.74609375 C-17.89126259 6.52060683 -15.81389595 5.25944301 -13.75292969 3.97265625 C-12.69750977 3.32167969 -11.64208984 2.67070313 -10.5546875 2 C-9.60835449 1.401875 -8.66202148 0.80375 -7.68701172 0.1875 C-4.47703119 -1.23112123 -3.28019137 -1.13334547 0 0 Z " fill="#78C5E3" transform="translate(145,83)"/>
<path d="M0 0 C0.09704224 0.95700806 0.09704224 0.95700806 0.19604492 1.93334961 C2.51275221 24.08027585 6.74997602 47.29142062 20.03125 65.82421875 C21.40464629 68.9088225 20.74878303 70.72304169 20 74 C19.04923087 76.31890278 18.01698729 78.60517337 16.9296875 80.86328125 C16.61638992 81.52054199 16.30309235 82.17780273 15.9803009 82.85498047 C15.30406307 84.27209035 14.6245147 85.68762431 13.94198608 87.10171509 C12.11678311 90.88351811 10.31516862 94.6765377 8.51171875 98.46875 C8.13962784 99.24970535 7.76753693 100.03066071 7.38417053 100.83528137 C3.03614022 109.98451929 -1.12936043 119.21637718 -5.27520752 128.45864868 C-6.17727513 130.46956519 -7.08269244 132.4789487 -7.98828125 134.48828125 C-8.49915283 135.62821533 -9.01002441 136.76814941 -9.53637695 137.94262695 C-12.04418604 143.18120798 -13.71019939 146.26638154 -18.91796875 149.05859375 C-19.91296387 149.60217529 -20.90795898 150.14575684 -21.93310547 150.70581055 C-23.00705566 151.27726807 -24.08100586 151.84872559 -25.1875 152.4375 C-27.46592046 153.68031979 -29.74323722 154.92516479 -32.01953125 156.171875 C-32.60069702 156.48839523 -33.18186279 156.80491547 -33.78063965 157.13102722 C-39.71344637 160.36810846 -45.54828929 163.76423631 -51.375 167.1875 C-52.3556543 167.76185791 -53.33630859 168.33621582 -54.34667969 168.92797852 C-56.28208319 170.06158582 -58.21714858 171.19577061 -60.15185547 172.33056641 C-64.74187888 175.02099844 -69.33780766 177.701138 -73.9375 180.375 C-74.74300293 180.84574951 -75.54850586 181.31649902 -76.37841797 181.80151367 C-81.88533475 185 -81.88533475 185 -83 185 C-83.56232245 167.25038182 -83.98463167 149.50309221 -84.24349213 131.74647331 C-84.36692471 123.49998041 -84.53491577 115.25903913 -84.81054688 107.01611328 C-85.05088087 99.82529983 -85.20483356 92.63850443 -85.25812387 85.44378674 C-85.28926426 81.63654403 -85.36148132 77.8407851 -85.53752136 74.03725815 C-86.56388634 50.9848794 -86.56388634 50.9848794 -80.64449692 44.36624718 C-74.8827205 39.82302225 -68.58028949 36.82846604 -61.78813839 34.13754845 C-58.24204287 32.69075676 -55.13753542 30.88860772 -51.8828125 28.87890625 C-49.96388622 27.77283952 -48.0446251 26.66735346 -46.125 25.5625 C-43.96744666 24.31901259 -41.80989462 23.07552294 -39.65234375 21.83203125 C-37.43489986 20.55468051 -35.21745183 19.27733696 -33 18 C-28.8036869 15.58216338 -24.60779716 13.16359338 -20.41229248 10.74435425 C-18.72901778 9.77393527 -17.04542113 8.80407481 -15.36181641 7.83422852 C-14.33878418 7.24440186 -13.31575195 6.6545752 -12.26171875 6.046875 C-11.36412842 5.52963867 -10.46653809 5.01240234 -9.54174805 4.47949219 C-7.7760795 3.45173775 -6.02845695 2.39259918 -4.29614258 1.30957031 C-2 0 -2 0 0 0 Z " fill="#609CB4" transform="translate(232,185)"/>
<path d="M0 0 C2.45876319 2.45876319 3.38555387 4.79140434 4.80859375 7.97265625 C5.0867543 8.59019272 5.36491486 9.20772919 5.65150452 9.84397888 C6.2609275 11.19771092 6.86837626 12.55233298 7.47412109 13.90771484 C9.14844135 17.65265924 10.8384254 21.39052814 12.52734375 25.12890625 C12.88649872 25.92467072 13.24565369 26.72043518 13.61569214 27.54031372 C17.84298241 36.8914725 22.1731652 46.19460737 26.5 55.5 C32.52528921 68.4669248 38.50009338 81.45445466 44.39648438 94.48046875 C49.69693648 106.18515474 55.08702231 117.84697404 60.5 129.5 C66.31524809 142.02169082 72.10376831 154.55435313 77.8125 167.125 C78.11240845 167.78469788 78.41231689 168.44439575 78.72131348 169.12408447 C81.81931401 175.94039937 84.89999927 182.76397724 87.94389343 189.60464478 C89.23366078 192.5022615 90.52798643 195.39783329 91.82235718 198.293396 C92.72771452 200.32499202 93.62533578 202.35988556 94.52270508 204.39501953 C95.07205158 205.62549382 95.62175491 206.85580888 96.171875 208.0859375 C96.6472168 209.1589209 97.12255859 210.2319043 97.61230469 211.33740234 C98.89146763 213.79175686 99.77556055 215.37709715 102 217 C103.94712891 217.11408203 103.94712891 217.11408203 105.93359375 217.23046875 C108.06591797 217.42724609 108.06591797 217.42724609 110 218 C111.88805563 220.604323 112.91953301 222.41028692 114.0625 225.3125 C114.52172852 226.32860352 114.52172852 226.32860352 114.99023438 227.36523438 C116.20908634 230.20552038 117.0797994 232.3744121 116.68359375 235.48046875 C116.45800781 235.98191406 116.23242188 236.48335937 116 237 C115.34 237 114.68 237 114 237 C113.44327389 244.63951944 115.09970242 249.46982705 118.5 256.25 C119.35229795 257.98019043 120.19637335 259.71446124 121.03125 261.453125 C121.40830078 262.20754883 121.78535156 262.96197266 122.17382812 263.73925781 C123.13328603 266.36472478 123.2931819 268.22372411 123 271 C114.87309002 283.6684185 95.52379471 290.42344525 81.41015625 293.87890625 C78.93874304 294.33374806 76.49213029 294.69270934 74 295 C71.98888908 289.20734143 70.25344085 283.41973322 68.81103516 277.46118164 C68.61380356 276.65972717 68.41657196 275.85827271 68.21336365 275.03253174 C67.78942965 273.30774362 67.36719538 271.58253698 66.94652176 269.85695076 C66.27621011 267.10743776 65.60133774 264.35907778 64.92538452 261.61094666 C63.73073351 256.75086137 62.54002657 251.88982011 61.35064697 247.02844238 C59.45547007 239.28227144 57.55707863 231.53689855 55.65339279 223.79281425 C54.99701157 221.11847334 54.34402909 218.44331947 53.6913147 215.76808167 C51.55643046 207.05410683 49.30379492 198.39047127 46.86813545 189.75576878 C44.65068744 181.84815666 42.68438471 173.88263565 40.73506165 165.90538025 C40.07221807 163.19314529 39.40582363 160.48180215 38.73864746 157.77062988 C37.08418909 151.04453131 35.43550423 144.31702057 33.78668213 137.58953857 C32.38543711 131.87320365 30.9819036 126.15743943 29.57551575 120.44236755 C28.9281458 117.8078563 28.28398745 115.17257476 27.64001465 112.53723145 C25.50486815 103.83648493 23.24941494 95.18543386 20.81990337 86.56222057 C18.66458718 78.88041365 16.75180124 71.145461 14.86328125 63.39453125 C14.49435243 61.88996173 14.12513921 60.38546192 13.75566101 58.88102722 C12.79902005 54.98334346 11.84538594 51.08493146 10.8927002 47.1862793 C9.35898032 40.91135467 7.82133416 34.63739347 6.28215599 28.36380577 C5.75024598 26.1933532 5.22014726 24.02246432 4.69026184 21.85151672 C4.362985 20.5153357 4.03565139 19.17916857 3.70825195 17.84301758 C3.42577103 16.68707596 3.1432901 15.53113434 2.85224915 14.34016418 C2.25179482 11.98684293 1.59312757 9.64799747 0.89323425 7.3223114 C0 4 0 4 0 0 Z " fill="#E19554" transform="translate(327,154)"/>
<path d="M0 0 C4.19988934 3.5985195 6.4241255 7.98276589 8.9375 12.8125 C9.59782227 14.07368652 9.59782227 14.07368652 10.27148438 15.36035156 C14.02601415 22.71088652 16.74390559 30.06606801 19 38 C19.34804688 39.10085937 19.69609375 40.20171875 20.0546875 41.3359375 C28.60049818 74.45978219 21.18092533 109.21148249 4.1328125 138.171875 C-10.08919908 160.47859856 -33.80626894 183.47508264 -60.5 189.5 C-61.655 189.665 -62.81 189.83 -64 190 C-67.55941309 182.97595109 -71.07710628 175.93428908 -74.4375 168.8125 C-74.93121094 167.76707031 -75.42492187 166.72164062 -75.93359375 165.64453125 C-77 163 -77 163 -77 160 C-76.17145508 159.59442871 -76.17145508 159.59442871 -75.32617188 159.18066406 C-50.82060662 147.07000153 -31.06395062 132.04392446 -16 109 C-15.45085937 108.19691406 -14.90171875 107.39382812 -14.3359375 106.56640625 C-1.03007922 86.03838424 4.42318305 61.63903936 4.375 37.5 C4.3764502 36.75719788 4.37790039 36.01439575 4.37939453 35.24908447 C4.37678346 23.12034808 3.2304044 11.73905883 0 0 Z " fill="#D3647C" transform="translate(474,108)"/>
</svg>
