<?xml version="1.0" encoding="UTF-8"?>
<svg version="1.1" xmlns="http://www.w3.org/2000/svg" width="256" height="256">
<path d="M0 0 C1.82990256 2.18528397 2.9390951 3.82888688 4.1875 6.3125 C7.77226133 13.05126723 10.62822741 15.63083002 17.8125 18.25 C27.71989929 22.31179265 31.79773125 28.37544899 36 38 C36.66 37.34 37.32 36.68 38 36 C37.67 35.01 37.34 34.02 37 33 C43.40687679 28.93409742 43.40687679 28.93409742 46.25 29.25 C46.8275 29.4975 47.405 29.745 48 30 C50.62113708 30 52.50935112 29.68707555 55 29 C54.505 27.02 54.505 27.02 54 25 C59.84969282 22.22139591 65.68619655 20.74977978 72 19.375 C72.9590625 19.1584375 73.918125 18.941875 74.90625 18.71875 C82.87912359 16.94456659 90.56354643 15.84159215 98.73046875 15.76171875 C99.55467316 15.75187958 100.37887756 15.74204041 101.22805786 15.73190308 C135.55661219 15.40616386 135.55661219 15.40616386 150 20 C150.79019531 20.24137695 151.58039063 20.48275391 152.39453125 20.73144531 C168.1449604 25.66120562 181.48867662 33.24738578 194 44 C194.68320313 44.55042969 195.36640625 45.10085937 196.0703125 45.66796875 C208.49210162 55.92203388 217.37570664 70.11512589 224.3125 84.5 C224.62582275 85.1388916 224.93914551 85.7777832 225.26196289 86.43603516 C231.3853742 99.63826045 232.67971124 111.81115443 232.5 126.125 C232.49446106 126.98650665 232.48892212 127.84801331 232.48321533 128.73562622 C232.38701124 141.48059664 231.87511044 153.76125698 228 166 C227.78569336 166.69448242 227.57138672 167.38896484 227.35058594 168.10449219 C217.42058149 199.2821044 195.5266598 224.27132269 166.60546875 239.34375 C154.90191633 245.18028893 142.73599434 249.27625952 130 252.1875 C129.32525635 252.34250977 128.6505127 252.49751953 127.95532227 252.65722656 C115.03378066 255.441401 102.312394 256.35028497 89.13964844 256.31567383 C86.63432284 256.31251177 84.13018117 256.33609009 81.625 256.36132812 C55.2028108 256.46534994 30.45110901 249.64468068 10.88671875 230.984375 C-1.54795899 217.94607213 -8.8193112 200.7801576 -8.52172852 182.78442383 C-8.22936902 176.28423146 -7.07870681 170.7909009 -4 165 C-3.525625 164.1028125 -3.05125 163.205625 -2.5625 162.28125 C4.7943392 149.68973675 14.12957116 141.32538373 28 137 C28.99 137 29.98 137 31 137 C31.99 137.99 31.99 137.99 33 139 C34.35227303 136.04120991 34.35227303 136.04120991 32.91113281 133.40649414 C32.34749023 132.37645264 31.78384766 131.34641113 31.203125 130.28515625 C30.57954102 129.13362061 29.95595703 127.98208496 29.31347656 126.7956543 C28.62610325 125.55101968 27.93826754 124.30664034 27.25 123.0625 C26.55362494 121.78922118 25.8579915 120.51553649 25.16308594 119.24145508 C23.7672631 116.68526773 22.36582781 114.13226818 20.9609375 111.58105469 C19.25621212 108.47857803 17.58947788 105.35750706 15.9375 102.2265625 C10.94414526 92.82506034 5.54874872 84.18884674 -0.98046875 75.7734375 C-3 73 -3 73 -3 71 C-4.03125 70.773125 -5.0625 70.54625 -6.125 70.3125 C-11.65923225 68.69136126 -15.3749279 65.55971272 -18.125 60.5625 C-18.78916643 59.05835839 -19.40958506 57.5345909 -20 56 C-20.37382812 55.03449219 -20.74765625 54.06898437 -21.1328125 53.07421875 C-24.92527228 41.78966186 -26.51605882 27.69115202 -22.4375 16.25 C-18.0614953 7.49799061 -10.51662837 -1.43669787 0 0 Z M48.38671875 63.55078125 C46.46640081 65.55764873 44.73064571 65.91968689 42 66 C39.69709829 72.90870513 40.52136908 78.7800367 43.5 85.375 C46.48721466 90.93493541 49.09043824 92.96222008 55 95 C55.33 93.68 55.66 92.36 56 91 C57.051875 91.08701172 57.051875 91.08701172 58.125 91.17578125 C65.20047504 91.51225085 69.61973471 90.70920376 75 86 C80.17228463 80.83923494 83.27963831 76.62042906 83.375 69.125 C83.27363418 63.91733093 82.69948398 60.89419367 79 57 C75.23834908 53.42643163 72.17014663 52.67260129 67.125 52.4375 C58.18501991 52.76942995 53.72769969 56.80504916 48.38671875 63.55078125 Z " fill="#EBDDD1" transform="translate(24,0)"/>
<path d="M0 0 C1.82990256 2.18528397 2.9390951 3.82888688 4.1875 6.3125 C7.77226133 13.05126723 10.62822741 15.63083002 17.8125 18.25 C26.48264117 21.80454693 31.1821311 26.90426636 35.12890625 35.3671875 C36.86735404 40.62150951 36.73966324 45.78101027 35 51 C34.46017345 57.30066211 36.12844201 62.27608164 38.1875 68.125 C38.47947266 68.98609375 38.77144531 69.8471875 39.07226562 70.734375 C43.12449892 82.55121015 47.81935852 94.1095545 52.64633179 105.62652588 C53.59312625 107.88557412 54.53766496 110.14555463 55.48168945 112.40576172 C56.87994713 115.75308079 58.27905678 119.10004197 59.67871094 122.44677734 C63.57616984 131.76823836 67.4638198 141.09379237 71.3510437 150.41952515 C72.66569592 153.57270317 73.98135948 156.72545779 75.29711914 159.87817383 C76.11869366 161.84845282 76.94022867 163.81874829 77.76171875 165.7890625 C78.13096466 166.67318314 78.50021057 167.55730377 78.88064575 168.46821594 C79.92584338 170.97661554 80.96479896 173.48745942 82 176 C82.38024323 176.91964539 82.76048645 177.83929077 83.1522522 178.7868042 C83.51942352 179.6865094 83.88659485 180.5862146 84.26489258 181.51318359 C84.76440178 182.73235977 84.76440178 182.73235977 85.27400208 183.97616577 C86 186 86 186 86 188 C87.98 187.34 89.96 186.68 92 186 C91.505 183.525 91.505 183.525 91 181 C99.78901277 178.07032908 108.89950922 179.96847685 117 184 C125.78496711 189.28316046 132.50209585 197.02655761 135.58984375 206.8828125 C137.07315255 214.53951127 136.77149289 223.06894519 133 230 C128.46560474 236.15382214 123.61671306 241.40128145 115.9375 243.1875 C115.28652344 243.34605469 114.63554687 243.50460938 113.96484375 243.66796875 C112 244 112 244 108 244 C108 242.68 108 241.36 108 240 C106.97519531 240.04640625 105.95039063 240.0928125 104.89453125 240.140625 C103.53388344 240.17816011 102.17320395 240.21455841 100.8125 240.25 C100.13896484 240.28351563 99.46542969 240.31703125 98.77148438 240.3515625 C95.52927121 240.4148252 93.25785047 240.13506453 90.375 238.625 C86.8620865 234.74230613 84.60726243 230.37096567 82.1875 225.75 C81.65833984 224.76 81.12917969 223.77 80.58398438 222.75 C77.30230641 216.5783669 74.13916245 210.35363582 71.05688477 204.08056641 C67.93084297 197.75931217 64.53613613 191.59401871 61.13378906 185.41821289 C57.86755521 179.47102116 54.66478746 173.49394533 51.5078125 167.48828125 C51.11602814 166.74382751 50.72424377 165.99937378 50.32058716 165.23236084 C48.74735859 162.24174294 47.17451674 159.25097318 45.61114502 156.25518799 C41.30191957 147.99786116 36.82525624 139.97810139 31.87548828 132.0847168 C28.8378687 127.08857994 26.20733421 121.89901624 23.5625 116.6875 C22.43267295 114.49522538 21.30116203 112.30381775 20.16796875 110.11328125 C19.35465088 108.54054443 19.35465088 108.54054443 18.52490234 106.93603516 C13.16234421 96.61100727 7.55519719 86.93484143 0.45263672 77.69287109 C-3 73.18625857 -3 73.18625857 -3 71 C-4.03125 70.773125 -5.0625 70.54625 -6.125 70.3125 C-11.65923225 68.69136126 -15.3749279 65.55971272 -18.125 60.5625 C-18.78916643 59.05835839 -19.40958506 57.5345909 -20 56 C-20.37382812 55.03449219 -20.74765625 54.06898437 -21.1328125 53.07421875 C-24.92527228 41.78966186 -26.51605882 27.69115202 -22.4375 16.25 C-18.0614953 7.49799061 -10.51662837 -1.43669787 0 0 Z " fill="#040303" transform="translate(24,0)"/>
<path d="M0 0 C4.03216457 1.48541985 5.14887146 3.55468765 7.03125 7.328125 C7.8668042 8.97615112 7.8668042 8.97615112 8.71923828 10.6574707 C9.00929749 11.24275543 9.29935669 11.82804016 9.59820557 12.43106079 C10.82180914 14.89909612 12.0713142 17.35367102 13.32009888 19.80903625 C13.95760086 21.0625616 14.5938856 22.31670671 15.22897339 23.57145691 C18.088 29.21059241 21.07843404 34.77245884 24.125 40.3125 C24.6087207 41.19470215 25.09244141 42.0769043 25.59082031 42.98583984 C27.05810885 45.6585759 28.5286022 48.32952425 30 51 C41.70869984 72.26014707 41.70869984 72.26014707 46.375 81.75 C51.15075472 92.612598 51.15075472 92.612598 59 101 C60.95285422 101.03254757 62.90700265 101.05813882 64.859375 101.00390625 C67.98007851 100.99821154 70.9251935 101.48753225 74 102 C74 103.32 74 104.64 74 106 C78.455 105.505 78.455 105.505 83 105 C81 108 81 108 79.22265625 108.65234375 C49.033422 113.37438566 15.39945918 111.38920845 -10 93 C-22.5555868 83.43128356 -28.82889904 71.89423175 -33 57 C-33.20109375 56.32195312 -33.4021875 55.64390625 -33.609375 54.9453125 C-35.67174874 44.67469128 -33.74658437 35.85962545 -28.19921875 27.18359375 C-26.22582205 24.36719263 -24.16097735 21.67451759 -22 19 C-21.46632813 18.31550781 -20.93265625 17.63101563 -20.3828125 16.92578125 C-15.4757458 11.29852316 -9.01832578 9.13003734 -2 7 C-1.34 7 -0.68 7 0 7 C-0.66 5.35 -1.32 3.7 -2 2 C-1.34 1.34 -0.68 0.68 0 0 Z " fill="#ECDED1" transform="translate(58,138)"/>
<path d="M0 0 C1.31803116 0.00506058 1.31803116 0.00506058 2.66268921 0.01022339 C15.52258914 0.08173146 27.84148434 0.51075001 40.1875 4.4375 C40.97769531 4.67887695 41.76789063 4.92025391 42.58203125 5.16894531 C58.3324604 10.09870562 71.67617662 17.68488578 84.1875 28.4375 C84.87070313 28.98792969 85.55390625 29.53835937 86.2578125 30.10546875 C98.67960162 40.35953388 107.56320664 54.55262589 114.5 68.9375 C114.81332275 69.5763916 115.12664551 70.2152832 115.44946289 70.87353516 C121.5728742 84.07576045 122.86721124 96.24865443 122.6875 110.5625 C122.68196106 111.42400665 122.67642212 112.28551331 122.67071533 113.17312622 C122.57451124 125.91809664 122.06261044 138.19875698 118.1875 150.4375 C117.97319336 151.13198242 117.75888672 151.82646484 117.53808594 152.54199219 C107.60808149 183.7196044 85.7141598 208.70882269 56.79296875 223.78125 C45.08941633 229.61778893 32.92349434 233.71375952 20.1875 236.625 C19.51275635 236.78000977 18.8380127 236.93501953 18.14282227 237.09472656 C5.22128066 239.878901 -7.500106 240.78778497 -20.67285156 240.75317383 C-23.17817716 240.75001177 -25.68231883 240.77359009 -28.1875 240.79882812 C-54.6096892 240.90284994 -79.36139099 234.08218068 -98.92578125 215.421875 C-111.36045899 202.38357213 -118.6318112 185.2176576 -118.33422852 167.22192383 C-118.04186902 160.72173146 -116.89120681 155.2284009 -113.8125 149.4375 C-113.338125 148.5403125 -112.86375 147.643125 -112.375 146.71875 C-105.0181608 134.12723675 -95.68292884 125.76288373 -81.8125 121.4375 C-80.8225 121.4375 -79.8325 121.4375 -78.8125 121.4375 C-75.8125 127.1875 -75.8125 127.1875 -75.8125 129.4375 C-76.8025 129.7778125 -77.7925 130.118125 -78.8125 130.46875 C-92.87109723 135.52770817 -99.83196752 143.23020146 -106.8125 156.4375 C-111.51478398 168.32340347 -108.37855567 180.06606234 -103.8125 191.4375 C-96.62389991 207.73841006 -83.96178185 217.59201987 -67.8125 224.4375 C-54.3392295 229.48219142 -41.20721058 231.80877144 -26.8125 231.6875 C-25.63550537 231.68073242 -24.45851074 231.67396484 -23.24584961 231.66699219 C16.83570604 231.1986161 55.29587479 221.07697965 84.08007812 191.89916992 C88.36672701 187.40897713 91.91195311 182.69625643 95.1875 177.4375 C95.75855469 176.57253906 96.32960937 175.70757812 96.91796875 174.81640625 C102.50109312 165.93024141 106.05587161 156.40504869 109.1875 146.4375 C109.41630859 145.71272461 109.64511719 144.98794922 109.88085938 144.24121094 C113.12782904 133.37635091 113.59246829 122.45095778 113.6875 111.1875 C113.69812469 110.51812408 113.70874939 109.84874817 113.71969604 109.15908813 C113.87884975 96.0725591 111.6471602 83.79894079 105.375 72.1875 C105.02735596 71.52258545 104.67971191 70.8576709 104.3215332 70.17260742 C90.32265874 43.77919521 70.20696055 25.72895346 42.1875 15.4375 C41.35863281 15.11136719 40.52976563 14.78523438 39.67578125 14.44921875 C27.12981692 9.78928914 13.80153417 8.88776323 0.5625 9 C-0.5368689 9.00306656 -0.5368689 9.00306656 -1.65844727 9.00619507 C-17.16284817 9.07622987 -31.78817601 11.0545947 -46.56835938 15.8581543 C-48.8125 16.4375 -48.8125 16.4375 -52.8125 16.4375 C-54.625 14.125 -54.625 14.125 -55.8125 11.4375 C-55.4825 10.4475 -55.1525 9.4575 -54.8125 8.4375 C-52.12791167 7.43688071 -49.57509725 6.65117096 -46.8125 5.9375 C-46.1009375 5.73769531 -45.389375 5.53789062 -44.65625 5.33203125 C-29.76693378 1.32925274 -15.36813958 -0.11483837 0 0 Z " fill="#020202" transform="translate(133.8125,15.5625)"/>
<path d="M0 0 C9.35512173 5.46461967 16.14240385 13.2065976 19.48046875 23.6171875 C21.35540379 33.87073852 19.69857133 42.05230751 13.85546875 50.66796875 C8.82841698 56.74690969 1.64748463 60.0476021 -6.1015625 61.05078125 C-16.80689782 61.46305347 -25.24121082 57.75370431 -33.14453125 50.66796875 C-40.3884073 43.69238441 -44.20789382 35.01152825 -44.45703125 24.98046875 C-44.34837255 16.03785742 -41.0936068 9.89843411 -35.08203125 3.39453125 C-25.23933652 -5.37657978 -11.49609013 -5.42153788 0 0 Z " fill="#519770" transform="translate(200.14453125,151.33203125)"/>
<path d="M0 0 C6.46259401 4.56659147 11.18380289 9.73313461 13.18359375 17.54296875 C14.55682377 28.69869302 12.21000795 37.87678109 5.49609375 46.85546875 C-1.63641922 55.16135262 -9.90682362 59.6001046 -20.765625 60.89453125 C-30.02956436 61.3452735 -36.81890808 58.51299365 -43.69140625 52.35546875 C-49.92694623 45.50079714 -51.52617397 37.80819777 -51.1953125 28.71484375 C-50.03147879 18.97223582 -44.87730472 10.79478394 -37.421875 4.53125 C-26.19176573 -3.69726324 -12.88158052 -7.55127134 0 0 Z " fill="#FCCD80" transform="translate(186.81640625,39.45703125)"/>
<path d="M0 0 C6.07059929 4.78839795 9.89181454 10.74191607 11.12890625 18.41796875 C11.535557 26.75430904 9.34365131 33.09615812 3.9609375 39.4609375 C-3.08866372 46.28977876 -11.71964469 49.70540451 -21.47265625 50.0234375 C-31.24948102 49.62504266 -39.20186081 46.14520049 -46.34765625 39.4609375 C-51.92067023 33.05126239 -53.89616835 27.08895807 -53.71875 18.59375 C-52.77305058 10.61005591 -48.63302497 4.87042963 -42.46875 -0.0703125 C-29.09579833 -9.33040426 -13.58932868 -8.90881115 0 0 Z " fill="#9196E6" transform="translate(229.34765625,98.5390625)"/>
<path d="M0 0 C8.78496711 5.28316046 15.50209585 13.02655761 18.58984375 22.8828125 C20.07315255 30.53951127 19.77149289 39.06894519 16 46 C11.46560474 52.15382214 6.61671306 57.40128145 -1.0625 59.1875 C-1.71347656 59.34605469 -2.36445313 59.50460938 -3.03515625 59.66796875 C-5 60 -5 60 -9 60 C-9 58.68 -9 57.36 -9 56 C-11.31 56 -13.62 56 -16 56 C-16.33 55.34 -16.66 54.68 -17 54 C-16.34 54 -15.68 54 -15 54 C-13.66964847 46.70760175 -14.4282858 42.39118628 -17.4375 35.6953125 C-17.79642334 34.8495163 -18.15534668 34.00372009 -18.52514648 33.1322937 C-19.6644461 30.45456199 -20.83022452 27.78954217 -22 25.125 C-23.16587288 22.43762938 -24.32575281 19.7480225 -25.47485352 17.05343628 C-26.18866263 15.38277447 -26.91279873 13.71647963 -27.64819336 12.0552063 C-27.97182861 11.30367279 -28.29546387 10.55213928 -28.62890625 9.77783203 C-28.91838135 9.1188089 -29.20785645 8.45978577 -29.50610352 7.78079224 C-30 6 -30 6 -29 3 C-26.9375 2.3125 -26.9375 2.3125 -25 2 C-25.33 0.35 -25.66 -1.3 -26 -3 C-17.21098723 -5.92967092 -8.10049078 -4.03152315 0 0 Z " fill="#EE4B87" transform="translate(141,184)"/>
<path d="M0 0 C6.46259401 4.56659147 11.18380289 9.73313461 13.18359375 17.54296875 C14.55682377 28.69869302 12.21000795 37.87678109 5.49609375 46.85546875 C-1.63641922 55.16135262 -9.90682362 59.6001046 -20.765625 60.89453125 C-30.02956436 61.3452735 -36.81890808 58.51299365 -43.69140625 52.35546875 C-49.92694623 45.50079714 -51.52617397 37.80819777 -51.1953125 28.71484375 C-50.03147879 18.97223582 -44.87730472 10.79478394 -37.421875 4.53125 C-26.19176573 -3.69726324 -12.88158052 -7.55127134 0 0 Z M-38.81640625 17.54296875 C-43.12819729 24.29079992 -43.92946966 30.94783749 -42.37890625 38.7421875 C-40.48941331 44.9420862 -36.34831817 48.42527207 -30.9140625 51.68359375 C-25.16939502 54.03708881 -18.34717257 53.04038481 -12.62890625 51.04296875 C-5.06707893 47.62872557 0.05422127 41.86411799 3.4921875 34.40234375 C5.63205452 28.64767313 6.63097553 22.06232859 4.2421875 16.25390625 C1.2390857 11.22677031 -2.13981769 7.78789366 -7.50390625 5.29296875 C-20.50599242 2.34910018 -30.6787784 7.15530554 -38.81640625 17.54296875 Z " fill="#080705" transform="translate(186.81640625,39.45703125)"/>
<path d="M0 0 C9.35512173 5.46461967 16.14240385 13.2065976 19.48046875 23.6171875 C21.35540379 33.87073852 19.69857133 42.05230751 13.85546875 50.66796875 C8.82841698 56.74690969 1.64748463 60.0476021 -6.1015625 61.05078125 C-16.80689782 61.46305347 -25.24121082 57.75370431 -33.14453125 50.66796875 C-40.3884073 43.69238441 -44.20789382 35.01152825 -44.45703125 24.98046875 C-44.34837255 16.03785742 -41.0936068 9.89843411 -35.08203125 3.39453125 C-25.23933652 -5.37657978 -11.49609013 -5.42153788 0 0 Z M-34.015625 14.765625 C-36.96395769 19.73392265 -36.87232395 25.08355936 -36.14453125 30.66796875 C-33.54927221 38.21275753 -29.90735463 44.322495 -23.14453125 48.66796875 C-22.53867188 49.07789063 -21.9328125 49.4878125 -21.30859375 49.91015625 C-15.80410728 53.16791355 -10.41591888 53.6522282 -4.14453125 52.66796875 C2.52173303 50.61316854 6.66313113 47.667476 10.015625 41.53515625 C13.02724411 34.83955655 12.58538825 27.72794089 10.0078125 20.93359375 C5.97142548 12.99764639 0.16574414 8.48627393 -8.12109375 5.48046875 C-19.31100339 2.47336125 -27.39350579 5.36474187 -34.015625 14.765625 Z " fill="#050505" transform="translate(200.14453125,151.33203125)"/>
<path d="M0 0 C0.42071777 1.01682861 0.84143555 2.03365723 1.27490234 3.08129883 C9.78138848 23.63635733 18.31642367 44.17904508 26.91607666 64.6953125 C31.4124287 75.42237668 35.90043012 86.15282503 40.37109375 96.890625 C40.82084061 97.97077377 41.27058746 99.05092255 41.73396301 100.1638031 C43.91597403 105.40503883 46.09691122 110.64671885 48.27661133 115.88891602 C48.67765579 116.85252548 49.07870026 117.81613495 49.49189758 118.8089447 C50.26659748 120.67061474 51.04045901 122.53263391 51.81340027 124.39503479 C53.48774598 128.41968818 55.17868569 132.43345815 56.94335938 136.41943359 C57.23317688 137.07731369 57.52299438 137.73519379 57.82159424 138.41300964 C58.57748874 140.11920813 59.34346668 141.82092983 60.11035156 143.5222168 C60.40393555 144.33988525 60.69751953 145.15755371 61 146 C60.67 146.66 60.34 147.32 60 148 C59.48695312 147.02289063 58.97390625 146.04578125 58.4453125 145.0390625 C55.63471606 139.69033186 52.81802368 134.34482068 50 129 C49.6709668 128.37587219 49.34193359 127.75174438 49.00292969 127.10870361 C36.824709 104.00780551 36.824709 104.00780551 24.39575195 81.04125977 C16.25690627 66.19082534 8.30450018 51.23835579 0.37109375 36.27734375 C-0.01519699 35.549104 -0.40148773 34.82086426 -0.79948425 34.07055664 C-2.68629553 30.51310877 -4.57150472 26.95482864 -6.45385742 23.39501953 C-7.1410736 22.09796075 -7.82832757 20.80092199 -8.515625 19.50390625 C-9.11665039 18.36767822 -9.71767578 17.2314502 -10.33691406 16.06079102 C-11.41112591 14.08378075 -12.53551812 12.13286555 -13.71777344 10.21850586 C-15 8 -15 8 -15 6 C-12.87717331 4.99539469 -10.75166979 3.99644398 -8.625 3 C-7.44164062 2.443125 -6.25828125 1.88625 -5.0390625 1.3125 C-2 0 -2 0 0 0 Z " fill="#525C9E" transform="translate(59,84)"/>
<path d="M0 0 C6.07059929 4.78839795 9.89181454 10.74191607 11.12890625 18.41796875 C11.535557 26.75430904 9.34365131 33.09615812 3.9609375 39.4609375 C-3.08866372 46.28977876 -11.71964469 49.70540451 -21.47265625 50.0234375 C-31.24948102 49.62504266 -39.20186081 46.14520049 -46.34765625 39.4609375 C-51.92067023 33.05126239 -53.89616835 27.08895807 -53.71875 18.59375 C-52.77305058 10.61005591 -48.63302497 4.87042963 -42.46875 -0.0703125 C-29.09579833 -9.33040426 -13.58932868 -8.90881115 0 0 Z M-41.34765625 9.4609375 C-44.79333207 13.75461453 -46.02226807 17.68994523 -45.72265625 23.1953125 C-44.73738303 29.1480049 -42.181634 33.11025204 -37.47265625 36.8359375 C-30.47825062 41.55011566 -23.68720133 42.57891999 -15.34765625 41.4609375 C-8.00167651 39.12761302 -2.13299452 35.70814468 1.71484375 28.8828125 C3.3785421 24.58492511 3.70914356 20.95585936 2.65234375 16.4609375 C-0.58056673 9.44530183 -5.06840873 5.45128518 -12.03515625 2.2109375 C-22.87391056 -0.24312008 -33.44592534 1.37544541 -41.34765625 9.4609375 Z " fill="#060606" transform="translate(229.34765625,98.5390625)"/>
<path d="M0 0 C5.31522967 4.61454026 9.33526654 10.16406407 10.3125 17.2734375 C10.80587414 27.04841264 7.19049032 35.61199658 0.99609375 43.05859375 C-2.2492138 46.21498876 -5.88147178 48.18813864 -10 50 C-10.78503906 50.36996094 -11.57007812 50.73992187 -12.37890625 51.12109375 C-15.49104982 52.16465903 -18.038323 52.19695993 -21.3125 52.125 C-22.38113281 52.10695312 -23.44976562 52.08890625 -24.55078125 52.0703125 C-25.76314453 52.03550781 -25.76314453 52.03550781 -27 52 C-26.67 49.03 -26.34 46.06 -26 43 C-25.29875 42.98582031 -24.5975 42.97164062 -23.875 42.95703125 C-16.16084743 42.56922738 -10.99564442 40.97525848 -5.46875 35.4765625 C-0.42500012 29.69970944 0.45413016 25.45605722 0.31640625 17.91796875 C-0.11066864 13.97938917 -1.28459766 11.86218084 -4 9 C-9.46384685 5.11730061 -14.49697335 5.11207048 -21 6 C-27.10958522 8.28728232 -31.13096444 12.91456311 -35 18 C-37.91985181 17.31911019 -40.35122304 16.41898766 -43 15 C-40.7690601 7.63789834 -35.44240993 2.7308006 -28.92578125 -1 C-19.63081482 -5.82659514 -8.97766124 -5.46000862 0 0 Z " fill="#040404" transform="translate(106,48)"/>
<path d="M0 0 C4.97284655 2.96051496 9.79605798 7.30812027 11.5546875 12.97265625 C11.65136719 13.54113281 11.74804688 14.10960937 11.84765625 14.6953125 C10.85765625 14.3653125 9.86765625 14.0353125 8.84765625 13.6953125 C0.37917955 13.11546457 -6.67944647 13.39523038 -13.40234375 19.0078125 C-18.32338946 23.38754318 -20.4091268 27.49279385 -21.33984375 34.0078125 C-21.49839844 35.07644531 -21.65695313 36.14507812 -21.8203125 37.24609375 C-21.92988281 38.05433594 -22.03945312 38.86257812 -22.15234375 39.6953125 C-28.54341318 35.05865429 -31.86743861 30.29818271 -34.15234375 22.6953125 C-35.10862406 16.52143258 -34.70660536 10.96120369 -31.5625 5.484375 C-23.13987852 -5.20138853 -11.66581195 -5.2684312 0 0 Z " fill="#447F5F" transform="translate(198.15234375,159.3046875)"/>
<path d="M0 0 C8.78496711 5.28316046 15.50209585 13.02655761 18.58984375 22.8828125 C20.07315255 30.53951127 19.77149289 39.06894519 16 46 C11.46560474 52.15382214 6.61671306 57.40128145 -1.0625 59.1875 C-1.71347656 59.34605469 -2.36445313 59.50460938 -3.03515625 59.66796875 C-5 60 -5 60 -9 60 C-9 57.36 -9 54.72 -9 52 C-8.33613281 51.82984375 -7.67226562 51.6596875 -6.98828125 51.484375 C-0.12600287 49.60100517 4.57463065 47.77506394 8.3125 41.4375 C11.00661663 35.4861522 11.18332655 29.41418809 9.046875 23.25 C5.23921044 15.15268802 -0.18528267 9.84208118 -8.26171875 5.89453125 C-11.57318207 4.81275507 -14.336295 4.80477364 -17.8125 4.875 C-18.97394531 4.89304688 -20.13539062 4.91109375 -21.33203125 4.9296875 C-22.21246094 4.95289063 -23.09289062 4.97609375 -24 5 C-24.66 2.36 -25.32 -0.28 -26 -3 C-17.21098723 -5.92967092 -8.10049078 -4.03152315 0 0 Z " fill="#070505" transform="translate(141,184)"/>
<path d="M0 0 C1.56826607 2.3523991 2.66542568 4.39441183 3.8125 6.9375 C6.46884112 12.26971415 10.28221833 15.26254134 15.859375 17.45703125 C24.61509254 19.67791581 32.06135862 17.75089508 40 14 C40.99 13.67 41.98 13.34 43 13 C41.87358637 20.40214668 37.41586691 25.04982865 32 30 C25.08873088 34.55190483 18.15038874 35.99096257 10 35 C3.82099745 32.53453706 -0.44926856 28.33407259 -3.25 22.3125 C-5.15933595 13.87959953 -4.09640363 7.5710317 0 0 Z " fill="#F7AF51" transform="translate(148,57)"/>
<path d="M0 0 C4.52104746 1.99543033 6.76076624 4.6376409 9 9 C10.46757037 13.70634637 10.49907811 17.65279467 8.5 22.1875 C4.95944182 28.27435003 -0.20777199 32.35543739 -6.890625 34.53125 C-11.96075348 35.65794522 -16.33993683 35.57463725 -21.25 33.875 C-25.61280075 30.90036313 -29.09842802 27.01323521 -31 22 C-31 21.01 -31 20.02 -31 19 C-30.01 19.33 -29.02 19.66 -28 20 C-22.18359857 20.47369892 -16.82105186 20.67903629 -11.3125 18.625 C-8.37997909 15.29619248 -8.29006021 12.77909356 -7.69921875 8.484375 C-6.526394 4.31724347 -3.50314951 2.30421064 0 0 Z " fill="#E8DBCE" transform="translate(42,29)"/>
<path d="M0 0 C2.39489543 0.74324341 3.70777616 1.47057354 4.93359375 3.69140625 C5.67219923 5.44073501 6.34049685 7.21934149 7 9 C6.31035156 9.1959375 5.62070312 9.391875 4.91015625 9.59375 C-8.61048057 13.89661384 -15.34349685 23.07893328 -22 35 C-26.99754313 44.78883845 -26.03492708 55.9559913 -22.875 66.1875 C-19.44275251 76.52748534 -14.60934786 85.14301064 -7 93 C-11.76471858 93 -13.99932696 89.89403366 -17.3671875 86.7421875 C-25.76695035 77.99347308 -29.78856747 68.46743289 -33 57 C-33.20109375 56.32195312 -33.4021875 55.64390625 -33.609375 54.9453125 C-35.67174874 44.67469128 -33.74658437 35.85962545 -28.19921875 27.18359375 C-26.22582205 24.36719263 -24.16097735 21.67451759 -22 19 C-21.46632813 18.31550781 -20.93265625 17.63101563 -20.3828125 16.92578125 C-15.4757458 11.29852316 -9.01832578 9.13003734 -2 7 C-1.34 7 -0.68 7 0 7 C-0.66 5.35 -1.32 3.7 -2 2 C-1.34 1.34 -0.68 0.68 0 0 Z " fill="#DDCABD" transform="translate(58,138)"/>
<path d="M0 0 C1.46373047 0.01353516 1.46373047 0.01353516 2.95703125 0.02734375 C4.06111328 0.04474609 4.06111328 0.04474609 5.1875 0.0625 C5.1875 0.3925 5.1875 0.7225 5.1875 1.0625 C3.6096875 1.31 3.6096875 1.31 2 1.5625 C-1.48799055 2.53177932 -2.78259954 3.95551099 -4.6875 7 C-8.42848386 13.62723962 -9.06846852 20.54225685 -7.0234375 27.90234375 C-4.84724677 33.60512391 -4.84724677 33.60512391 -0.8125 38.0625 C2.29589021 38.7894226 2.29589021 38.7894226 5.1875 39.0625 C5.1875 39.3925 5.1875 39.7225 5.1875 40.0625 C-3.98193924 40.47512477 -10.3943189 40.03627574 -18.0625 34.875 C-22.42971238 30.40853279 -24.95331539 25.93040413 -25.4375 19.625 C-25.14915139 14.05987176 -22.50826521 10.09424387 -18.8125 6.0625 C-12.89690519 1.21932296 -7.58969198 -0.09144207 0 0 Z " fill="#7F84D4" transform="translate(208.8125,99.9375)"/>
<path d="M0 0 C4.24888689 1.5174596 5.61497237 4.3140482 8 8 C9.62652316 9.70586575 11.29006566 11.3777546 13 13 C14 14 15 15 16 16 C15.38125 16.61875 14.7625 17.2375 14.125 17.875 C11.61392038 21.56776415 11.12378476 24.53389285 10.4921875 28.890625 C10.32976563 29.58671875 10.16734375 30.2828125 10 31 C6.50423143 32.74788429 2.81381227 32.57238292 -1 32 C-4.33264513 30.34907783 -7.29587364 28.40825271 -9 25 C-9.99056488 16.84906616 -8.48314551 10.84536949 -4 4 C-1.6875 1.375 -1.6875 1.375 0 0 Z " fill="#F7AF51" transform="translate(17,10)"/>
<path d="M0 0 C-2.65407401 3.34394163 -5.67753484 4.0070958 -9.6875 5.1875 C-25.25026718 10.0786554 -41.69020073 18.03530109 -51 32 C-51.33093523 24.71942502 -51.10553546 16.1583032 -47 10 C-47.33 9.01 -47.66 8.02 -48 7 C-41.59312321 2.93409742 -41.59312321 2.93409742 -38.75 3.25 C-38.1725 3.4975 -37.595 3.745 -37 4 C-34.16032769 4 -31.76264289 3.59732819 -29 3 C-28.67 3.99 -28.34 4.98 -28 6 C-27.3294458 5.81824219 -26.6588916 5.63648438 -25.96801758 5.44921875 C-22.91787853 4.62635374 -19.86525809 3.81309214 -16.8125 3 C-15.75740234 2.71382812 -14.70230469 2.42765625 -13.61523438 2.1328125 C-12.59365234 1.86210937 -11.57207031 1.59140625 -10.51953125 1.3125 C-9.58214111 1.06113281 -8.64475098 0.80976563 -7.67895508 0.55078125 C-5.03746727 0.0077031 -2.68782684 -0.1023122 0 0 Z " fill="#DBC9BB" transform="translate(109,26)"/>
<path d="M0 0 C0 0.99 0 1.98 0 3 C0.66 2.67 1.32 2.34 2 2 C11.67976803 0.8236393 18.06892736 3.64267395 25.9375 9 C28.15293869 11.14830419 29.56367761 13.27854706 31 16 C30.29488281 15.84015625 29.58976562 15.6803125 28.86328125 15.515625 C18.15326993 13.58694629 10.17685837 15.38055156 1 21 C-0.19922024 18.23371889 -1.38460499 15.462845 -2.5625 12.6875 C-3.07586914 11.50897461 -3.07586914 11.50897461 -3.59960938 10.30664062 C-3.91865234 9.54931641 -4.23769531 8.79199219 -4.56640625 8.01171875 C-4.86490479 7.31522217 -5.16340332 6.61872559 -5.47094727 5.90112305 C-6 4 -6 4 -5 1 C-3 0 -3 0 0 0 Z " fill="#D24176" transform="translate(117,186)"/>
<path d="M0 0 C0.25724854 0.51522217 0.51449707 1.03044434 0.77954102 1.5612793 C2.02943944 4.05882589 3.28337647 6.55432767 4.53761292 9.04969788 C19.29695153 38.42479336 19.29695153 38.42479336 26.15112305 52.95532227 C28.41348264 57.73763469 30.7367383 62.47845572 33.1484375 67.1875 C33.92598389 68.71068848 33.92598389 68.71068848 34.71923828 70.26464844 C35.71668536 72.20990887 36.72247868 74.1509193 37.73779297 76.08691406 C38.18010254 76.95026367 38.62241211 77.81361328 39.078125 78.703125 C39.47418945 79.46270508 39.87025391 80.22228516 40.27832031 81.00488281 C41 83 41 83 40 86 C39.51756836 85.08524902 39.03513672 84.17049805 38.53808594 83.22802734 C27.25596422 61.80406438 27.25596422 61.80406438 15.75 40.5 C15.29302734 39.66549316 14.83605469 38.83098633 14.36523438 37.97119141 C13.42717407 36.25873936 12.48902167 34.54633775 11.55078125 32.83398438 C8.76174469 27.73714301 5.98118668 22.63582511 3.21398926 17.52709961 C2.26774117 15.78270557 1.31701769 14.04074159 0.36621094 12.29882812 C-0.20323242 11.24630859 -0.77267578 10.19378906 -1.359375 9.109375 C-1.86952148 8.17061523 -2.37966797 7.23185547 -2.90527344 6.26464844 C-4 4 -4 4 -4 2 C-2.68 1.34 -1.36 0.68 0 0 Z " fill="#424B84" transform="translate(48,88)"/>
<path d="M0 0 C0.66 0 1.32 0 2 0 C2.50961846 1.39235043 3.00724909 2.78909118 3.5 4.1875 C3.7784375 4.96480469 4.056875 5.74210937 4.34375 6.54296875 C5.0353168 9.13222779 5.11370917 11.33257238 5 14 C2.9237343 15.03513247 0.83868521 16.05266211 -1.25 17.0625 C-2.41015625 17.63097656 -3.5703125 18.19945313 -4.765625 18.78515625 C-8 20 -8 20 -10.21875 19.9609375 C-12.71231017 18.61572741 -13.74169459 16.94303252 -15.25 14.5625 C-15.77078125 13.75941406 -16.2915625 12.95632812 -16.828125 12.12890625 C-18 10 -18 10 -18 8 C-17.27554688 7.82984375 -16.55109375 7.6596875 -15.8046875 7.484375 C-9.71714936 5.95843211 -4.543533 4.543533 0 0 Z " fill="#7C8CA9" transform="translate(50,63)"/>
<path d="M0 0 C0.99 0.33 1.98 0.66 3 1 C4.89212737 1.22179785 6.78884472 1.40614015 8.6875 1.5625 C9.68136719 1.64628906 10.67523438 1.73007812 11.69921875 1.81640625 C12.83810547 1.90728516 12.83810547 1.90728516 14 2 C15.07525194 4.65228812 16.09456151 7.28368454 17 10 C20.54220546 11.82170566 24.07765636 12.45269624 28 13 C23.04615959 16.30256028 18.78766727 16.53607896 13 16 C7.00299054 13.92411211 3.89962866 10.16604777 0.6875 4.8125 C0 3 0 3 0 0 Z " fill="#D6C4B7" transform="translate(11,48)"/>
<path d="M0 0 C0.33 0 0.66 0 1 0 C1.06058594 0.60328125 1.12117187 1.2065625 1.18359375 1.828125 C1.26738281 2.62734375 1.35117188 3.4265625 1.4375 4.25 C1.55931641 5.43335938 1.55931641 5.43335938 1.68359375 6.640625 C1.98000966 8.85093621 2.28757501 10.8858557 3 13 C5.85673948 14.71404369 7.73073173 15.00549527 11.0625 14.9375 C14.7189803 13.7705382 15.90445431 12.14331853 18 9 C18.66 9.33 19.32 9.66 20 10 C19.71890887 11.64767247 19.42481474 13.29313145 19.125 14.9375 C18.96257813 15.85402344 18.80015625 16.77054688 18.6328125 17.71484375 C18.42398437 18.46894531 18.21515625 19.22304688 18 20 C14.50423143 21.74788429 10.81381227 21.57238292 7 21 C3.66735487 19.34907783 0.70412636 17.40825271 -1 14 C-1.09632897 12.18958207 -1.12981533 10.37547247 -1.125 8.5625 C-1.12757813 7.59441406 -1.13015625 6.62632813 -1.1328125 5.62890625 C-1 3 -1 3 0 0 Z " fill="#E3954E" transform="translate(9,21)"/>
<path d="M0 0 C1.42258812 3.82320557 2.24042276 6.91281305 2 11 C0.5437455 11.67119549 -0.91507867 12.33681807 -2.375 13 C-3.59316406 13.556875 -3.59316406 13.556875 -4.8359375 14.125 C-7 15 -7 15 -9 15 C-9.66964286 7.23214286 -9.66964286 7.23214286 -6.625 3.5625 C-2.97560976 0 -2.97560976 0 0 0 Z " fill="#B9C7E0" transform="translate(53,66)"/>
<path d="M0 0 C0.515625 0.2475 1.03125 0.495 1.5625 0.75 C1.8925 3.06 2.2225 5.37 2.5625 7.75 C0.3125 9.375 0.3125 9.375 -2.4375 10.75 C-5.60496742 10.00471355 -6.37731838 8.84027244 -8.1875 6.125 C-8.6 5.34125 -9.0125 4.5575 -9.4375 3.75 C-3.0375 -0.31153846 -3.0375 -0.31153846 0 0 Z " fill="#020202" transform="translate(70.4375,29.25)"/>
<path d="M0 0 C2.35830786 3.53746179 3.97584017 7.18296639 5.6875 11.0625 C6.02072266 11.79533203 6.35394531 12.52816406 6.69726562 13.28320312 C7.52730376 15.16243708 8.27064895 17.07944523 9 19 C8.67 19.66 8.34 20.32 8 21 C6.45925893 18.26070622 4.94607142 15.50712161 3.4375 12.75 C2.99986328 11.97269531 2.56222656 11.19539062 2.11132812 10.39453125 C1.70205078 9.64042969 1.29277344 8.88632813 0.87109375 8.109375 C0.48880615 7.41811523 0.10651855 6.72685547 -0.28735352 6.01464844 C-1.14174203 3.59929592 -0.84205836 2.37922307 0 0 Z " fill="#40487C" transform="translate(111,211)"/>
</svg>
