<?xml version="1.0" encoding="UTF-8"?>
<svg version="1.1" xmlns="http://www.w3.org/2000/svg" width="256" height="256">
<path d="M0 0 C8.34468007 4.97590182 13.53387008 11.86345977 16.109375 21.2578125 C16.34654984 23.89431418 16.49036109 26.37519097 16.484375 29.0078125 C16.48304565 30.0601709 16.48304565 30.0601709 16.48168945 31.13378906 C16.32997133 37.83403089 14.9470933 44.11178334 10.34765625 49.2109375 C9.73470703 50.22414063 9.73470703 50.22414063 9.109375 51.2578125 C10.34649034 55.17055922 12.35465891 58.5791911 14.42578125 62.10546875 C14.7537117 62.66538513 15.08164215 63.22530151 15.41950989 63.80218506 C16.49987454 65.64379855 17.58564149 67.48215539 18.671875 69.3203125 C19.43902746 70.62390521 20.20611622 71.92753541 20.97314453 73.23120117 C26.75195392 83.03516492 32.63930934 92.77044159 38.56811523 102.484375 C45.0091397 113.04518465 51.32036352 123.68149919 57.60302734 134.3371582 C64.00999129 146.4726279 64.00999129 146.4726279 72.109375 157.2578125 C73.86624355 157.23455672 75.62329293 157.20508589 77.37915039 157.14111328 C87.6581478 156.8053875 95.80609301 158.2959029 103.578125 165.5546875 C110.97178791 173.77825135 112.69127567 182.49226885 112.421875 193.26953125 C111.94754865 201.65522581 108.33467977 208.6607495 102.109375 214.2578125 C92.91092481 221.17504705 83.32570255 222.40087773 72.109375 221.2578125 C62.5679071 219.08536961 56.16760581 213.50930518 51.0546875 205.3828125 C50.109375 203.2578125 50.109375 203.2578125 49.109375 197.2578125 C6.209375 197.2578125 -36.690625 197.2578125 -80.890625 197.2578125 C-81.385625 200.2278125 -81.385625 200.2278125 -81.890625 203.2578125 C-85.77061715 211.31315952 -91.67426244 215.99904684 -99.390625 220.1328125 C-108.14341949 223.02158064 -119.52839637 222.47588698 -127.78125 218.515625 C-136.12593007 213.53972318 -141.31512008 206.65216523 -143.890625 197.2578125 C-144.88914012 186.15803978 -144.24009702 176.5233259 -137.140625 167.4453125 C-132.39190724 162.36082681 -126.61793915 158.98815532 -119.890625 157.2578125 C-116.50114326 157.3637338 -113.17657816 157.53698556 -109.8125 157.95117188 C-107.44140525 158.17328565 -107.44140525 158.17328565 -103.890625 157.2578125 C-101.2589561 154.64719358 -99.66868911 151.48594569 -97.890625 148.2578125 C-96.87979091 146.57079376 -95.86864476 144.88395232 -94.85165405 143.20063782 C-93.31448672 140.64598342 -91.80364828 138.07611202 -90.29150391 135.5065918 C-88.18871137 131.93438306 -86.07707462 128.36741503 -83.96484375 124.80078125 C-83.53650238 124.07736542 -83.10816101 123.35394958 -82.6668396 122.60861206 C-78.62594429 115.79358532 -74.51602815 109.02190768 -70.390625 102.2578125 C-64.4620594 92.52276611 -58.57250037 82.76523025 -52.73730469 72.97387695 C-51.88879211 71.55092459 -51.03904208 70.12870933 -50.18798828 68.70727539 C-49.00321197 66.72755693 -47.82323251 64.74505865 -46.64453125 62.76171875 C-46.29326675 62.17652969 -45.94200226 61.59134064 -45.58009338 60.98841858 C-43.71433457 57.83527379 -42.0142878 54.75373776 -40.890625 51.2578125 C-41.65088737 49.15584379 -41.65088737 49.15584379 -43.140625 47.3203125 C-48.82039891 39.55050943 -48.83293852 30.50426389 -47.890625 21.2578125 C-45.93824412 12.68286691 -41.19272628 6.23905838 -33.890625 1.4453125 C-24.13209154 -4.51145897 -10.31095059 -4.94787226 0 0 Z M-34.453125 74.5078125 C-35.23476557 75.98052571 -36.02396562 77.44924926 -36.8203125 78.9140625 C-38.44016415 81.90587811 -40.02791897 84.91147999 -41.59423828 87.93164062 C-44.89188625 94.22580846 -48.64211016 100.22570453 -52.390625 106.2578125 C-53.77778646 108.52817495 -55.16257785 110.7997563 -56.54296875 113.07421875 C-56.88995819 113.64521805 -57.23694763 114.21621735 -57.5944519 114.80451965 C-62.89873945 123.54827422 -68.09530432 132.35700124 -73.296875 141.16210938 C-73.67246552 141.79670074 -74.04805603 142.43129211 -74.43502808 143.08511353 C-75.17158666 144.33116491 -75.90594786 145.57851815 -76.63796997 146.82723999 C-78.45280612 149.90741838 -80.31657359 152.9333805 -82.29638672 155.91064453 C-82.87035439 156.78904747 -82.87035439 156.78904747 -83.45591736 157.68519592 C-84.50693445 159.28434405 -85.57789347 160.87033484 -86.65014648 162.45532227 C-88.21291554 165.19536423 -88.21291554 165.19536423 -87.16259766 167.99145508 C-86.53297119 169.113302 -86.53297119 169.113302 -85.890625 170.2578125 C-85.54902344 170.96164063 -85.20742187 171.66546875 -84.85546875 172.390625 C-84.34693359 173.37675781 -84.34693359 173.37675781 -83.828125 174.3828125 C-82.6360129 176.69506012 -81.71875786 178.77341392 -80.890625 181.2578125 C-37.990625 181.2578125 4.909375 181.2578125 49.109375 181.2578125 C50.429375 177.9578125 51.749375 174.6578125 53.109375 171.2578125 C54.099375 169.9378125 55.089375 168.6178125 56.109375 167.2578125 C55.10735782 163.30996991 52.84662375 159.90669414 50.79296875 156.41015625 C50.4650383 155.85023987 50.13710785 155.29032349 49.79924011 154.71343994 C48.71887546 152.87182645 47.63310851 151.03346961 46.546875 149.1953125 C45.77972254 147.89171979 45.01263378 146.58808959 44.24560547 145.28442383 C38.46598419 135.47908269 32.57717995 125.74267553 26.6484375 116.02685547 C19.85574532 104.88721719 13.19141136 93.67199491 6.57012939 82.42970276 C5.82825265 81.18096443 5.07765126 79.93736467 4.3180542 78.69932556 C2.46792707 75.67002305 0.81782984 72.68896315 -0.59326172 69.42919922 C-3.42228078 63.26810695 -3.42228078 63.26810695 -8.84277344 59.47866821 C-22.79879548 56.16399765 -28.76845771 62.8079435 -34.453125 74.5078125 Z " fill="#4BAF4F" transform="translate(143.890625,18.7421875)"/>
<path d="M0 0 C4.12133221 1.45458784 7.39739611 3.54716331 11 6 C12.3191582 6.69429379 13.64649406 7.37530495 15 8 C13.49981509 12.1033766 11.48684413 15.77092836 9.24609375 19.50390625 C8.87368057 20.13054672 8.5012674 20.75718719 8.11756897 21.40281677 C6.89452248 23.4582404 5.66614179 25.51041689 4.4375 27.5625 C3.57533266 29.00835135 2.7133561 30.45431648 1.8515625 31.90039062 C-4.22899438 42.09143615 -10.37862009 52.23968403 -16.5559082 62.37231445 C-23.01510381 72.97736203 -29.35199817 83.65406605 -35.66992188 94.34375 C-36.05272812 94.99077881 -36.43553436 95.63780762 -36.8299408 96.30444336 C-37.56689118 97.55021779 -38.30305299 98.79645912 -39.03834534 100.04321289 C-40.98368905 103.33070933 -42.99210582 106.56337657 -45.07421875 109.765625 C-47.32455135 112.7454636 -47.32455135 112.7454636 -46.5625 115.5 C-45.7890625 116.7375 -45.7890625 116.7375 -45 118 C-44.27816981 119.36796283 -43.57073262 120.74358144 -42.875 122.125 C-42.52179687 122.78757812 -42.16859375 123.45015625 -41.8046875 124.1328125 C-41 126 -41 126 -41 129 C1.9 129 44.8 129 89 129 C89 134.28 89 139.56 89 145 C46.1 145 3.2 145 -41 145 C-41.495 147.97 -41.495 147.97 -42 151 C-45.87999215 159.05534702 -51.78363744 163.74123434 -59.5 167.875 C-68.25279449 170.76376814 -79.63777137 170.21807448 -87.890625 166.2578125 C-96.23530507 161.28191068 -101.42449508 154.39435273 -104 145 C-104.99851512 133.90022728 -104.34947202 124.2655134 -97.25 115.1875 C-92.50128224 110.10301431 -86.72731415 106.73034282 -80 105 C-76.61051826 105.1059213 -73.28595316 105.27917306 -69.921875 105.69335938 C-67.55078025 105.91547315 -67.55078025 105.91547315 -64 105 C-61.3683311 102.38938108 -59.77806411 99.22813319 -58 96 C-56.98916591 94.31298126 -55.97801976 92.62613982 -54.96102905 90.94282532 C-53.42386172 88.38817092 -51.91302328 85.81829952 -50.40087891 83.2487793 C-48.29808637 79.67657056 -46.18644962 76.10960253 -44.07421875 72.54296875 C-43.64587738 71.81955292 -43.21753601 71.09613708 -42.7762146 70.35079956 C-38.06526281 62.40571316 -33.25781827 54.52069627 -28.44750977 46.63549805 C-24.53153846 40.20761619 -20.6559803 33.75741503 -16.8203125 27.28125 C-16.38607971 26.54817627 -15.95184692 25.81510254 -15.50445557 25.05981445 C-13.3836744 21.4771529 -11.2667893 17.89224225 -9.15429688 14.3046875 C-8.3867445 13.00519312 -7.61916762 11.70571322 -6.8515625 10.40625 C-6.50545929 9.81589966 -6.15935608 9.22554932 -5.80276489 8.61730957 C-4.0221766 5.60699373 -2.16408158 2.74894581 0 0 Z " fill="#4BAF4F" transform="translate(104,71)"/>
<path d="M0 0 C8.34468007 4.97590182 13.53387008 11.86345977 16.109375 21.2578125 C16.34655307 23.89435008 16.49067549 26.37515428 16.484375 29.0078125 C16.48276367 29.71010986 16.48115234 30.41240723 16.47949219 31.13598633 C16.28377271 39.48956215 13.757495 46.03698103 8.109375 52.2578125 C5.234375 54.20703125 5.234375 54.20703125 2.109375 55.9453125 C1.078125 56.52667969 0.046875 57.10804687 -1.015625 57.70703125 C-1.964375 58.21878906 -2.913125 58.73054688 -3.890625 59.2578125 C-4.51710937 59.64710937 -5.14359375 60.03640625 -5.7890625 60.4375 C-11.89807824 62.82206005 -20.72392079 62.24664143 -26.91796875 60.3125 C-29.37897336 59.10664566 -31.61567516 57.78287146 -33.890625 56.2578125 C-34.54546875 55.87367187 -35.2003125 55.48953125 -35.875 55.09375 C-42.47639691 50.94671861 -45.86005235 44.65553753 -47.890625 37.2578125 C-48.88914012 26.15803978 -48.24009702 16.5233259 -41.140625 7.4453125 C-30.84272373 -3.5807232 -13.59449082 -6.52353083 0 0 Z " fill="#FEC107" transform="translate(143.890625,18.7421875)"/>
<path d="M0 0 C4.09175574 1.55085158 7.37975242 3.53515058 11 6 C12.3191582 6.69429379 13.64649406 7.37530495 15 8 C13.49981509 12.1033766 11.48684413 15.77092836 9.24609375 19.50390625 C8.87368057 20.13054672 8.5012674 20.75718719 8.11756897 21.40281677 C6.89452248 23.4582404 5.66614179 25.51041689 4.4375 27.5625 C3.57533266 29.00835135 2.7133561 30.45431648 1.8515625 31.90039062 C-4.22983476 42.09284465 -10.38101993 52.24203874 -16.55810547 62.37670898 C-24.12543628 74.80365797 -31.53273604 87.32526553 -38.94345093 99.8460083 C-41.94209394 104.90952275 -44.96349226 109.9591162 -48 115 C-48.83144531 114.50628906 -49.66289063 114.01257813 -50.51953125 113.50390625 C-51.60621094 112.86324219 -52.69289063 112.22257812 -53.8125 111.5625 C-54.89144531 110.92441406 -55.97039063 110.28632813 -57.08203125 109.62890625 C-59.93180642 107.919233 -59.93180642 107.919233 -63 107 C-62.32266994 103.28132515 -60.69104972 100.48987552 -58.78125 97.25 C-58.4519046 96.68866867 -58.1225592 96.12733734 -57.78323364 95.54899597 C-56.69398151 93.69623561 -55.59720935 91.84805752 -54.5 90 C-53.72812832 88.69194563 -52.95648484 87.38375657 -52.18505859 86.07543945 C-46.38415955 76.25620228 -40.47968134 66.50115013 -34.53710938 56.76708984 C-30.65846881 50.40884258 -26.81699979 44.03052671 -23.0234375 37.62109375 C-22.60389801 36.91242661 -22.18435852 36.20375946 -21.75210571 35.47361755 C-19.72449824 32.0463584 -17.70087168 28.61681365 -15.68212891 25.18432617 C-10.65325058 16.65594967 -5.41260586 8.29005207 0 0 Z " fill="#455964" transform="translate(104,71)"/>
<path d="M0 0 C3.95453099 1.318177 4.88644088 3.67344641 6.8515625 7.11328125 C7.22256073 7.74558151 7.59355896 8.37788177 7.97579956 9.02934265 C8.77868883 10.39985969 9.57753256 11.7727529 10.37280273 13.14770508 C12.07091773 16.08340125 13.78810344 19.00777153 15.50445557 21.93283081 C16.38608519 23.43561694 17.26673182 24.93898015 18.14642334 26.44290161 C22.18640171 33.34374249 26.32972804 40.17718112 30.5 47 C37.59738081 58.63499536 44.57210595 70.3399487 51.49414062 82.08007812 C52.24856455 83.35684965 53.00311858 84.6335443 53.7578125 85.91015625 C54.1167157 86.51953033 54.4756189 87.12890442 54.84539795 87.75674438 C57.69105411 92.55879934 60.73077272 97.21528629 63.87841797 101.82592773 C64.24854004 102.54337158 64.61866211 103.26081543 65 104 C64 107 64 107 62.29296875 108.0625 C61.59816406 108.371875 60.90335937 108.68125 60.1875 109 C57.72244566 110.14008763 55.84105024 111.12458224 53.6875 112.8125 C53.130625 113.204375 52.57375 113.59625 52 114 C48.04546901 112.681823 47.11355912 110.32655359 45.1484375 106.88671875 C44.77743927 106.25441849 44.40644104 105.62211823 44.02420044 104.97065735 C43.22131117 103.60014031 42.42246744 102.2272471 41.62719727 100.85229492 C39.92908227 97.91659875 38.21189656 94.99222847 36.49554443 92.06716919 C35.61391481 90.56438306 34.73326818 89.06101985 33.85357666 87.55709839 C29.81359829 80.65625751 25.67027196 73.82281888 21.5 67 C14.40261919 55.36500464 7.42789405 43.6600513 0.50585938 31.91992188 C-0.24844534 30.64307992 -1.0029965 29.36638352 -1.7578125 28.08984375 C-2.1174408 27.48046967 -2.47706909 26.87109558 -2.84759521 26.24325562 C-5.68627268 21.4606465 -8.68777642 16.79692596 -11.78076172 12.17407227 C-13 10 -13 10 -13 7 C-12.14535156 6.57847656 -11.29070312 6.15695313 -10.41015625 5.72265625 C-9.30542969 5.17480469 -8.20070312 4.62695312 -7.0625 4.0625 C-5.96035156 3.51722656 -4.85820312 2.97195312 -3.72265625 2.41015625 C-1.15205586 1.25295022 -1.15205586 1.25295022 0 0 Z " fill="#455A63" transform="translate(150,71)"/>
<path d="M0 0 C42.9 0 85.8 0 130 0 C130 5.28 130 10.56 130 16 C87.1 16 44.2 16 0 16 C0 10.72 0 5.44 0 0 Z " fill="#455A63" transform="translate(63,200)"/>
</svg>
