<?xml version="1.0" encoding="UTF-8"?>
<svg version="1.1" xmlns="http://www.w3.org/2000/svg" width="512" height="512">
<path d="M0 0 C163.68 0 327.36 0 496 0 C496 163.68 496 327.36 496 496 C332.32 496 168.64 496 0 496 C0 332.32 0 168.64 0 0 Z " fill="#6498EB" transform="translate(8,8)"/>
<path d="M0 0 C5.79897388 3.28375629 10.61567925 7.70869251 13.33203125 13.859375 C14.72296212 18.94468912 14.84820856 24.78419429 12.92797852 29.71264648 C12.95271693 34.54918033 15.21192678 36.23204652 18.49746704 39.60069275 C19.31814667 40.4040657 20.13882629 41.20743866 20.984375 42.03515625 C21.81738129 42.87248795 22.65038757 43.70981964 23.50863647 44.57252502 C25.27411323 46.33838331 27.0483562 48.09551402 28.83056641 49.84448242 C31.56177539 52.53066613 34.25662538 55.24977969 36.94921875 57.97460938 C38.66720177 59.6843732 40.38718873 61.39212629 42.109375 63.09765625 C42.91790924 63.91519882 43.72644348 64.73274139 44.55947876 65.57505798 C45.32311737 66.31655594 46.08675598 67.05805389 46.87353516 67.82202148 C47.54051422 68.48121078 48.20749329 69.14040009 48.89468384 69.81956482 C50.91487062 71.37648203 50.91487062 71.37648203 53.55014038 70.81922913 C54.34054718 70.58239914 55.13095398 70.34556915 55.9453125 70.1015625 C64.77268584 69.3527478 71.25374768 70.67945846 78.1953125 76.2890625 C83.55429068 81.34211476 86.10084469 86.06766133 86.5078125 93.4765625 C86.22417306 100.29336363 83.82957867 105.85419394 79.30078125 110.953125 C73.0426433 116.68857422 66.97187985 118.44872412 58.59375 118.3046875 C55.9453125 118.1015625 55.9453125 118.1015625 53.53427124 117.38290405 C50.9115028 116.82700414 50.9115028 116.82700414 48.89468384 118.39028931 C47.89421524 119.38359756 47.89421524 119.38359756 46.87353516 120.39697266 C45.72807724 121.51406113 45.72807724 121.51406113 44.55947876 122.65371704 C43.75094452 123.47439667 42.94241028 124.29507629 42.109375 125.140625 C41.27062836 125.97363129 40.43188171 126.80663757 39.56771851 127.66488647 C37.79703253 129.4314864 36.03391364 131.20569836 34.27783203 132.98681641 C31.58080566 135.71594444 28.85332735 138.41164103 26.12109375 141.10546875 C24.40692701 142.82360027 22.69462239 144.54359207 20.984375 146.265625 C20.16369537 147.07415924 19.34301575 147.88269348 18.49746704 148.71572876 C17.75274139 149.47936737 17.00801575 150.24300598 16.24072266 151.02978516 C15.2474144 152.03025375 15.2474144 152.03025375 14.23403931 153.05093384 C12.67099586 155.06852712 12.67099586 155.06852712 13.22225952 157.69711304 C13.460867 158.49058136 13.69947449 159.28404968 13.9453125 160.1015625 C14.81856827 168.22284116 13.65141178 174.34469452 8.9453125 181.1015625 C4.47848837 186.13071841 -0.87231967 189.59365876 -7.66015625 190.41796875 C-13.9939959 190.688795 -18.95192045 189.99878784 -24.0546875 186.1015625 C-29.58827003 180.92181473 -33.78660853 176.2716569 -34.19140625 168.46484375 C-34.32097426 160.99973299 -34.32097426 160.99973299 -33.33921814 157.68832397 C-32.78069756 155.06868569 -32.78069756 155.06868569 -34.33668518 153.05093384 C-34.99587448 152.38395477 -35.65506378 151.71697571 -36.33422852 151.02978516 C-37.07572647 150.26614655 -37.81722443 149.50250793 -38.58119202 148.71572876 C-39.39873459 147.90719452 -40.21627716 147.09866028 -41.05859375 146.265625 C-41.88922836 145.42687836 -42.71986298 144.58813171 -43.57566833 143.72396851 C-45.33796834 141.95319675 -47.10798848 140.19008012 -48.88500977 138.43408203 C-51.60499331 135.73864664 -54.28860532 133.0104189 -56.97070312 130.27734375 C-58.6854081 128.56300926 -60.40213995 126.85069919 -62.12109375 125.140625 C-62.92446671 124.31994537 -63.72783966 123.49926575 -64.55555725 122.65371704 C-68.76563657 118.23857185 -68.76563657 118.23857185 -74.44360352 117.08422852 C-75.73609009 117.58780884 -75.73609009 117.58780884 -77.0546875 118.1015625 C-84.21267885 118.73072312 -90.17856233 118.55504684 -96.0546875 114.1015625 C-100.01480566 110.34906218 -102.71531856 107.45903825 -104.0546875 102.1015625 C-113.2946875 102.1015625 -122.5346875 102.1015625 -132.0546875 102.1015625 C-132.7146875 104.0815625 -133.3746875 106.0615625 -134.0546875 108.1015625 C-135.859375 110.18359375 -135.859375 110.18359375 -137.9296875 111.9140625 C-138.60773438 112.49800781 -139.28578125 113.08195312 -139.984375 113.68359375 C-142.0546875 115.1015625 -142.0546875 115.1015625 -146.0546875 116.1015625 C-146.0546875 125.3415625 -146.0546875 134.5815625 -146.0546875 144.1015625 C-143.0846875 145.0915625 -143.0846875 145.0915625 -140.0546875 146.1015625 C-137.7890625 148.08984375 -137.7890625 148.08984375 -135.8046875 150.4140625 C-135.13953125 151.17332031 -134.474375 151.93257812 -133.7890625 152.71484375 C-129.57168121 158.51849232 -129.31702755 164.13690297 -130.0546875 171.1015625 C-131.88658071 178.76108914 -136.71411638 183.67614682 -143.0546875 188.1015625 C-148.97601193 190.68541316 -155.9578354 191.26577587 -162.2265625 189.484375 C-167.71171394 187.08196371 -171.72880625 183.03736308 -175.0546875 178.1015625 C-175.3846875 176.7815625 -175.7146875 175.4615625 -176.0546875 174.1015625 C-185.2946875 174.1015625 -194.5346875 174.1015625 -204.0546875 174.1015625 C-201.86094788 177.7577952 -200.34371212 180.07169645 -197.48876953 182.98974609 C-196.4321965 184.07514175 -196.4321965 184.07514175 -195.35427856 185.1824646 C-194.59799164 185.94725128 -193.84170471 186.71203796 -193.0625 187.5 C-192.27954559 188.29435455 -191.49659119 189.08870911 -190.68991089 189.90713501 C-189.03682247 191.57907236 -187.38084046 193.24815305 -185.72216797 194.91455078 C-183.18163339 197.47460167 -180.66319647 200.05517287 -178.14453125 202.63671875 C-176.53517603 204.2591248 -174.92454192 205.88026346 -173.3125 207.5 C-172.56026154 208.27693207 -171.80802307 209.05386414 -171.0329895 209.8543396 C-170.32230316 210.55902374 -169.61161682 211.26370789 -168.87939453 211.98974609 C-168.26001007 212.61642181 -167.64062561 213.24309753 -167.00247192 213.88876343 C-165.06569168 215.37425458 -165.06569168 215.37425458 -162.46310425 214.80874634 C-161.27093796 214.45869034 -161.27093796 214.45869034 -160.0546875 214.1015625 C-152.54472346 213.4550093 -145.28591645 213.94068395 -139.078125 218.578125 C-133.55177714 223.72821088 -129.92638712 229.31475424 -129.5546875 236.9765625 C-129.93434615 244.70024312 -132.30490114 250.90772795 -138.0546875 256.1640625 C-140.93311873 258.5533853 -142.26797215 259.15488366 -146.0546875 260.1015625 C-146.0546875 269.3415625 -146.0546875 278.5815625 -146.0546875 288.1015625 C-144.0746875 288.7615625 -142.0946875 289.4215625 -140.0546875 290.1015625 C-137.71875 292.16015625 -137.71875 292.16015625 -135.6796875 294.5390625 C-134.99132812 295.32152344 -134.30296875 296.10398437 -133.59375 296.91015625 C-132.0546875 299.1015625 -132.0546875 299.1015625 -132.0546875 302.1015625 C-122.8146875 302.1015625 -113.5746875 302.1015625 -104.0546875 302.1015625 C-103.3946875 300.1215625 -102.7346875 298.1415625 -102.0546875 296.1015625 C-100.06640625 293.8359375 -100.06640625 293.8359375 -97.7421875 291.8515625 C-96.98292969 291.18640625 -96.22367188 290.52125 -95.44140625 289.8359375 C-89.88088501 285.7952314 -84.72522078 285.46821937 -78.0546875 286.1015625 C-70.74869068 287.56542343 -65.09203392 292.06598706 -60.6640625 297.94921875 C-57.49232373 303.38808066 -57.08610211 308.94718807 -58.0546875 315.1015625 C-60.38548057 322.46987608 -64.61924068 327.85664277 -71.0546875 332.1015625 C-77.02275415 334.64351681 -83.93202701 335.27310991 -90.2265625 333.484375 C-95.71171394 331.08196371 -99.72880625 327.03736308 -103.0546875 322.1015625 C-103.3846875 320.7815625 -103.7146875 319.4615625 -104.0546875 318.1015625 C-113.2946875 318.1015625 -122.5346875 318.1015625 -132.0546875 318.1015625 C-132.7146875 320.0815625 -133.3746875 322.0615625 -134.0546875 324.1015625 C-138.91738722 329.98017835 -144.97977148 333.45301093 -152.5 334.4140625 C-158.53275334 334.70924309 -163.18663949 333.75259851 -168.0546875 330.1015625 C-174.68913654 323.90235214 -178.00272204 318.86864646 -178.4296875 309.7265625 C-178.27008708 303.18294512 -176.65736725 298.84824297 -172.1484375 294.08984375 C-168.70629652 290.92384468 -166.68402068 289.25889579 -162.0546875 288.1015625 C-162.0546875 278.8615625 -162.0546875 269.6215625 -162.0546875 260.1015625 C-164.0346875 259.4415625 -166.0146875 258.7815625 -168.0546875 258.1015625 C-173.08727111 253.93868751 -176.7771223 248.53627165 -178.0546875 242.1015625 C-178.39751533 237.87766485 -178.56109397 233.79166571 -177.33702087 229.70639038 C-176.77976797 227.07112062 -176.77976797 227.07112062 -178.33668518 225.05093384 C-178.99587448 224.38395477 -179.65506378 223.71697571 -180.33422852 223.02978516 C-181.07572647 222.26614655 -181.81722443 221.50250793 -182.58119202 220.71572876 C-183.39873459 219.90719452 -184.21627716 219.09866028 -185.05859375 218.265625 C-185.88922836 217.42687836 -186.71986298 216.58813171 -187.57566833 215.72396851 C-189.33796834 213.95319675 -191.10798848 212.19008012 -192.88500977 210.43408203 C-195.60499331 207.73864664 -198.28860532 205.0104189 -200.97070312 202.27734375 C-202.6854081 200.56300926 -204.40213995 198.85069919 -206.12109375 197.140625 C-206.92446671 196.31994537 -207.72783966 195.49926575 -208.55555725 194.65371704 C-212.76254119 190.23855655 -212.76254119 190.23855655 -218.43701172 189.09082031 C-219.30084473 189.42436523 -220.16467773 189.75791016 -221.0546875 190.1015625 C-222.90726358 190.18892392 -224.76256023 190.23183882 -226.6171875 190.2265625 C-227.98037109 190.23042969 -227.98037109 190.23042969 -229.37109375 190.234375 C-232.0546875 190.1015625 -232.0546875 190.1015625 -234.46792603 189.38729858 C-237.08866007 188.82644521 -237.08866007 188.82644521 -239.10531616 190.39028931 C-239.77229523 191.05249481 -240.43927429 191.71470032 -241.12646484 192.39697266 C-241.89010345 193.1416983 -242.65374207 193.88642395 -243.44052124 194.65371704 C-244.24905548 195.47439667 -245.05758972 196.29507629 -245.890625 197.140625 C-246.72937164 197.97363129 -247.56811829 198.80663757 -248.43228149 199.66488647 C-250.20296747 201.4314864 -251.96608636 203.20569836 -253.72216797 204.98681641 C-256.41919434 207.71594444 -259.14667265 210.41164103 -261.87890625 213.10546875 C-263.59307299 214.82360027 -265.30537761 216.54359207 -267.015625 218.265625 C-268.24664444 219.47842636 -268.24664444 219.47842636 -269.50253296 220.71572876 C-270.24725861 221.47936737 -270.99198425 222.24300598 -271.75927734 223.02978516 C-272.42148285 223.69676422 -273.08368835 224.36374329 -273.76596069 225.05093384 C-275.32900414 227.06852712 -275.32900414 227.06852712 -274.77774048 229.69711304 C-274.41982925 230.88731552 -274.41982925 230.88731552 -274.0546875 232.1015625 C-273.18143173 240.22284116 -274.34858822 246.34469452 -279.0546875 253.1015625 C-283.52151163 258.13071841 -288.87231967 261.59365876 -295.66015625 262.41796875 C-301.9939959 262.688795 -306.95192045 261.99878784 -312.0546875 258.1015625 C-318.68547555 251.894768 -322.00248154 246.87379596 -322.4296875 237.7265625 C-322.25680824 231.00246918 -320.59983783 226.77492003 -315.9609375 221.90234375 C-310.49354746 216.82678333 -306.2788878 213.79451824 -298.6171875 213.9140625 C-297.71097656 213.92050781 -296.80476563 213.92695313 -295.87109375 213.93359375 C-293.0546875 214.1015625 -293.0546875 214.1015625 -290.43701172 215.11230469 C-285.61026814 215.09697506 -283.92457163 212.846716 -280.55555725 209.57505798 C-279.7521843 208.75751541 -278.94881134 207.93997284 -278.12109375 207.09765625 C-277.28376205 206.26702164 -276.44643036 205.43638702 -275.58372498 204.58058167 C-273.81778364 202.81940459 -272.06065498 201.04935337 -270.31176758 199.27124023 C-267.62716067 196.54917483 -264.9073134 193.86641946 -262.18164062 191.18554688 C-260.47170935 189.47098997 -258.76395078 187.75426291 -257.05859375 186.03515625 C-255.83227989 184.83009682 -255.83227989 184.83009682 -254.58119202 183.60069275 C-250.18379603 179.38594948 -250.18379603 179.38594948 -249.03955078 173.71264648 C-249.3745459 172.85098877 -249.70954102 171.98933105 -250.0546875 171.1015625 C-250.68371819 163.94504942 -250.53825398 157.95643256 -246.0546875 152.1015625 C-241.31313617 147.12116437 -236.75357423 142.78072932 -229.73046875 141.765625 C-222.26639403 141.64225186 -215.62563032 142.93316232 -209.90625 148.0078125 C-206.77398529 151.43412655 -205.20162914 153.51379593 -204.0546875 158.1015625 C-194.8146875 158.1015625 -185.5746875 158.1015625 -176.0546875 158.1015625 C-175.7246875 156.7815625 -175.3946875 155.4615625 -175.0546875 154.1015625 C-173.53125 152.03125 -173.53125 152.03125 -171.6796875 149.9765625 C-171.07382813 149.29335937 -170.46796875 148.61015625 -169.84375 147.90625 C-168.0546875 146.1015625 -168.0546875 146.1015625 -165.0546875 144.1015625 C-164.0646875 144.1015625 -163.0746875 144.1015625 -162.0546875 144.1015625 C-162.0546875 134.8615625 -162.0546875 125.6215625 -162.0546875 116.1015625 C-165.0246875 115.1115625 -165.0246875 115.1115625 -168.0546875 114.1015625 C-173.93330335 109.23886278 -177.40613593 103.17647852 -178.3671875 95.65625 C-178.66213155 89.62833094 -177.71035924 84.96282811 -174.0546875 80.1015625 C-169.31911688 75.11861132 -164.74994581 70.78020488 -157.73046875 69.765625 C-150.26639403 69.64225186 -143.62563032 70.93316232 -137.90625 76.0078125 C-134.77398529 79.43412655 -133.20162914 81.51379593 -132.0546875 86.1015625 C-122.8146875 86.1015625 -113.5746875 86.1015625 -104.0546875 86.1015625 C-103.3946875 84.1215625 -102.7346875 82.1415625 -102.0546875 80.1015625 C-100.06640625 77.8359375 -100.06640625 77.8359375 -97.7421875 75.8515625 C-96.98292969 75.18640625 -96.22367188 74.52125 -95.44140625 73.8359375 C-89.88088501 69.7952314 -84.72522078 69.46821937 -78.0546875 70.1015625 C-70.74869068 71.56542343 -65.09203392 76.06598706 -60.6640625 81.94921875 C-57.46558125 87.43393835 -57.50961775 92.90027716 -58.0546875 99.1015625 C-58.39040771 99.96322021 -58.72612793 100.82487793 -59.07202148 101.71264648 C-59.04728307 106.54918033 -56.78807322 108.23204652 -53.50253296 111.60069275 C-52.68185333 112.4040657 -51.86117371 113.20743866 -51.015625 114.03515625 C-50.18261871 114.87248795 -49.34961243 115.70981964 -48.49136353 116.57252502 C-46.72588677 118.33838331 -44.9516438 120.09551402 -43.16943359 121.84448242 C-40.43822461 124.53066613 -37.74337462 127.24977969 -35.05078125 129.97460938 C-33.33279823 131.6843732 -31.61281127 133.39212629 -29.890625 135.09765625 C-29.08209076 135.91519882 -28.27355652 136.73274139 -27.44052124 137.57505798 C-26.67688263 138.31655594 -25.91324402 139.05805389 -25.12646484 139.82202148 C-24.45948578 140.48121078 -23.79250671 141.14040009 -23.10531616 141.81956482 C-21.08749311 143.37590995 -21.08749311 143.37590995 -18.46792603 142.81483459 C-17.27337296 142.46176491 -17.27337296 142.46176491 -16.0546875 142.1015625 C-14.24392484 142.01194688 -12.43015907 141.97141932 -10.6171875 141.9765625 C-9.71097656 141.97398437 -8.80476563 141.97140625 -7.87109375 141.96875 C-5.0546875 142.1015625 -5.0546875 142.1015625 -2.43701172 143.11010742 C2.39049987 143.09791146 4.07509092 140.8470437 7.44444275 137.57505798 C8.2478157 136.75751541 9.05118866 135.93997284 9.87890625 135.09765625 C10.71623795 134.26702164 11.55356964 133.43638702 12.41627502 132.58058167 C14.18221636 130.81940459 15.93934502 129.04935337 17.68823242 127.27124023 C20.37283933 124.54917483 23.0926866 121.86641946 25.81835938 119.18554688 C27.52829065 117.47098997 29.23604922 115.75426291 30.94140625 114.03515625 C31.75894882 113.23178329 32.57649139 112.42841034 33.41880798 111.60069275 C37.81622758 107.38904539 37.81622758 107.38904539 38.95385742 101.71923828 C38.45462769 100.42348877 38.45462769 100.42348877 37.9453125 99.1015625 C37.85795108 97.24898642 37.81503618 95.39368977 37.8203125 93.5390625 C37.81773437 92.63027344 37.81515625 91.72148438 37.8125 90.78515625 C37.9453125 88.1015625 37.9453125 88.1015625 38.65858459 85.68832397 C39.21965995 83.06875689 39.21965995 83.06875689 37.66331482 81.05093384 C37.00412552 80.38395477 36.34493622 79.71697571 35.66577148 79.02978516 C34.92427353 78.26614655 34.18277557 77.50250793 33.41880798 76.71572876 C32.60126541 75.90719452 31.78372284 75.09866028 30.94140625 74.265625 C30.11077164 73.42687836 29.28013702 72.58813171 28.42433167 71.72396851 C26.66203166 69.95319675 24.89201152 68.19008012 23.11499023 66.43408203 C20.39500669 63.73864664 17.71139468 61.0104189 15.02929688 58.27734375 C13.3145919 56.56300926 11.59786005 54.85069919 9.87890625 53.140625 C9.07553329 52.31994537 8.27216034 51.49926575 7.44444275 50.65371704 C3.23436343 46.23857185 3.23436343 46.23857185 -2.44360352 45.08422852 C-3.30526123 45.41994873 -4.16691895 45.75566895 -5.0546875 46.1015625 C-12.21743364 46.73114105 -18.19160752 46.57947491 -24.0546875 42.1015625 C-30.68547555 35.894768 -34.00248154 30.87379596 -34.4296875 21.7265625 C-34.25680824 15.00246918 -32.59983783 10.77492003 -27.9609375 5.90234375 C-19.7156089 -1.75206963 -10.78488932 -4.67199659 0 0 Z " fill="#1A1B1C" transform="translate(410.0546875,17.8984375)"/>
<path d="M0 0 C6.50099074 3.68128391 11.87819747 8.78320492 13.9453125 16.1015625 C15.20812266 24.11138693 13.56404504 30.47013291 8.9453125 37.1015625 C4.49621226 42.11076324 -0.93811327 45.78125269 -7.765625 46.3125 C-15.02073169 46.40975344 -15.02073169 46.40975344 -18.46572876 45.38290405 C-21.0884972 44.82700414 -21.0884972 44.82700414 -23.10531616 46.39028931 C-23.77229523 47.05249481 -24.43927429 47.71470032 -25.12646484 48.39697266 C-25.89010345 49.1416983 -26.65374207 49.88642395 -27.44052124 50.65371704 C-28.24905548 51.47439667 -29.05758972 52.29507629 -29.890625 53.140625 C-30.72937164 53.97363129 -31.56811829 54.80663757 -32.43228149 55.66488647 C-34.20296747 57.4314864 -35.96608636 59.20569836 -37.72216797 60.98681641 C-40.41919434 63.71594444 -43.14667265 66.41164103 -45.87890625 69.10546875 C-47.59307299 70.82360027 -49.30537761 72.54359207 -51.015625 74.265625 C-51.83630463 75.07415924 -52.65698425 75.88269348 -53.50253296 76.71572876 C-54.24725861 77.47936737 -54.99198425 78.24300598 -55.75927734 79.02978516 C-56.42148285 79.69676422 -57.08368835 80.36374329 -57.76596069 81.05093384 C-59.32900414 83.06852712 -59.32900414 83.06852712 -58.77774048 85.69711304 C-58.41982925 86.88731552 -58.41982925 86.88731552 -58.0546875 88.1015625 C-57.18246055 96.21327309 -58.33887658 102.35795289 -63.0546875 109.1015625 C-66.49617131 112.88104919 -69.04717598 114.84968462 -74.0546875 116.1015625 C-74.0546875 125.3415625 -74.0546875 134.5815625 -74.0546875 144.1015625 C-72.0746875 144.7615625 -70.0946875 145.4215625 -68.0546875 146.1015625 C-65.7890625 148.08984375 -65.7890625 148.08984375 -63.8046875 150.4140625 C-63.13953125 151.17332031 -62.474375 151.93257812 -61.7890625 152.71484375 C-57.60469407 158.47306247 -57.16374991 164.178235 -58.0546875 171.1015625 C-60.79356192 179.63609082 -65.70588983 184.59264077 -73.3046875 188.9765625 C-78.83547814 190.63579969 -84.86820114 191.05135767 -90.46572876 189.38290405 C-93.0884972 188.82700414 -93.0884972 188.82700414 -95.10531616 190.39028931 C-95.77229523 191.05249481 -96.43927429 191.71470032 -97.12646484 192.39697266 C-97.89010345 193.1416983 -98.65374207 193.88642395 -99.44052124 194.65371704 C-100.24905548 195.47439667 -101.05758972 196.29507629 -101.890625 197.140625 C-102.72937164 197.97363129 -103.56811829 198.80663757 -104.43228149 199.66488647 C-106.20296747 201.4314864 -107.96608636 203.20569836 -109.72216797 204.98681641 C-112.41919434 207.71594444 -115.14667265 210.41164103 -117.87890625 213.10546875 C-119.59307299 214.82360027 -121.30537761 216.54359207 -123.015625 218.265625 C-124.24664444 219.47842636 -124.24664444 219.47842636 -125.50253296 220.71572876 C-126.24725861 221.47936737 -126.99198425 222.24300598 -127.75927734 223.02978516 C-128.42148285 223.69676422 -129.08368835 224.36374329 -129.76596069 225.05093384 C-131.32900414 227.06852712 -131.32900414 227.06852712 -130.77774048 229.69711304 C-130.41982925 230.88731552 -130.41982925 230.88731552 -130.0546875 232.1015625 C-129.18143173 240.22284116 -130.34858822 246.34469452 -135.0546875 253.1015625 C-139.52151163 258.13071841 -144.87231967 261.59365876 -151.66015625 262.41796875 C-157.9939959 262.688795 -162.95192045 261.99878784 -168.0546875 258.1015625 C-174.68547555 251.894768 -178.00248154 246.87379596 -178.4296875 237.7265625 C-178.25680824 231.00246918 -176.59983783 226.77492003 -171.9609375 221.90234375 C-166.49354746 216.82678333 -162.2788878 213.79451824 -154.6171875 213.9140625 C-153.71097656 213.92050781 -152.80476563 213.92695313 -151.87109375 213.93359375 C-149.0546875 214.1015625 -149.0546875 214.1015625 -146.43701172 215.11230469 C-141.61026814 215.09697506 -139.92457163 212.846716 -136.55555725 209.57505798 C-135.7521843 208.75751541 -134.94881134 207.93997284 -134.12109375 207.09765625 C-133.28376205 206.26702164 -132.44643036 205.43638702 -131.58372498 204.58058167 C-129.81778364 202.81940459 -128.06065498 201.04935337 -126.31176758 199.27124023 C-123.62716067 196.54917483 -120.9073134 193.86641946 -118.18164062 191.18554688 C-116.47170935 189.47098997 -114.76395078 187.75426291 -113.05859375 186.03515625 C-111.83227989 184.83009682 -111.83227989 184.83009682 -110.58119202 183.60069275 C-106.18379603 179.38594948 -106.18379603 179.38594948 -105.03955078 173.71264648 C-105.3745459 172.85098877 -105.70954102 171.98933105 -106.0546875 171.1015625 C-106.68384812 163.94357115 -106.50817184 157.97768767 -102.0546875 152.1015625 C-98.30218718 148.14144434 -95.41216325 145.44093144 -90.0546875 144.1015625 C-90.0546875 134.8615625 -90.0546875 125.6215625 -90.0546875 116.1015625 C-92.0346875 115.4415625 -94.0146875 114.7815625 -96.0546875 114.1015625 C-101.93330335 109.23886278 -105.40613593 103.17647852 -106.3671875 95.65625 C-106.66213155 89.62833094 -105.71035924 84.96282811 -102.0546875 80.1015625 C-97.24714104 75.04287555 -92.59629911 70.49159901 -85.37109375 69.87109375 C-84.46230469 69.88527344 -83.55351562 69.89945312 -82.6171875 69.9140625 C-81.25787109 69.92373047 -81.25787109 69.92373047 -79.87109375 69.93359375 C-77.0546875 70.1015625 -77.0546875 70.1015625 -74.43701172 71.11230469 C-69.61026814 71.09697506 -67.92457163 68.846716 -64.55555725 65.57505798 C-63.7521843 64.75751541 -62.94881134 63.93997284 -62.12109375 63.09765625 C-61.28376205 62.26702164 -60.44643036 61.43638702 -59.58372498 60.58058167 C-57.81778364 58.81940459 -56.06065498 57.04935337 -54.31176758 55.27124023 C-51.62716067 52.54917483 -48.9073134 49.86641946 -46.18164062 47.18554688 C-44.47170935 45.47098997 -42.76395078 43.75426291 -41.05859375 42.03515625 C-40.24105118 41.23178329 -39.42350861 40.42841034 -38.58119202 39.60069275 C-34.18379603 35.38594948 -34.18379603 35.38594948 -33.03955078 29.71264648 C-33.54204346 28.42015991 -33.54204346 28.42015991 -34.0546875 27.1015625 C-34.68371819 19.94504942 -34.53825398 13.95643256 -30.0546875 8.1015625 C-21.5267617 -0.85594165 -12.0492209 -5.21970298 0 0 Z " fill="#1B1B1C" transform="translate(482.0546875,233.8984375)"/>
<path d="M0 0 C5.79897388 3.28375629 10.61567925 7.70869251 13.33203125 13.859375 C14.72296212 18.94468912 14.84820856 24.78419429 12.92797852 29.71264648 C12.95271693 34.54918033 15.21192678 36.23204652 18.49746704 39.60069275 C19.31814667 40.4040657 20.13882629 41.20743866 20.984375 42.03515625 C21.81738129 42.87248795 22.65038757 43.70981964 23.50863647 44.57252502 C25.27411323 46.33838331 27.0483562 48.09551402 28.83056641 49.84448242 C31.56177539 52.53066613 34.25662538 55.24977969 36.94921875 57.97460938 C38.66720177 59.6843732 40.38718873 61.39212629 42.109375 63.09765625 C43.32217636 64.32397011 43.32217636 64.32397011 44.55947876 65.57505798 C45.32311737 66.31655594 46.08675598 67.05805389 46.87353516 67.82202148 C47.54051422 68.48121078 48.20749329 69.14040009 48.89468384 69.81956482 C50.91517542 71.37663885 50.91517542 71.37663885 53.55233765 70.81922913 C54.34201935 70.58239914 55.13170105 70.34556915 55.9453125 70.1015625 C63.45527654 69.4550093 70.71408355 69.94068395 76.921875 74.578125 C82.67723614 79.94163177 86.08285822 85.53662733 86.5078125 93.4765625 C86.22417306 100.29336363 83.82957867 105.85419394 79.30078125 110.953125 C73.18526997 116.55785994 66.90885072 118.73090266 58.6484375 118.4375 C50.92837394 117.47807014 46.41936394 113.16776973 41.578125 107.3203125 C37.24364683 101.43039958 37.5036647 95.15765635 37.9453125 88.1015625 C38.18141739 87.30519379 38.41752228 86.50882507 38.66078186 85.68832397 C39.21930244 83.06868569 39.21930244 83.06868569 37.66331482 81.05093384 C37.00412552 80.38395477 36.34493622 79.71697571 35.66577148 79.02978516 C34.92427353 78.26614655 34.18277557 77.50250793 33.41880798 76.71572876 C32.60126541 75.90719452 31.78372284 75.09866028 30.94140625 74.265625 C30.11077164 73.42687836 29.28013702 72.58813171 28.42433167 71.72396851 C26.66203166 69.95319675 24.89201152 68.19008012 23.11499023 66.43408203 C20.39500669 63.73864664 17.71139468 61.0104189 15.02929688 58.27734375 C13.3145919 56.56300926 11.59786005 54.85069919 9.87890625 53.140625 C9.07553329 52.31994537 8.27216034 51.49926575 7.44444275 50.65371704 C3.23745881 46.23855655 3.23745881 46.23855655 -2.43701172 45.09082031 C-3.30084473 45.42436523 -4.16467773 45.75791016 -5.0546875 46.1015625 C-6.90726358 46.18892392 -8.76256023 46.23183882 -10.6171875 46.2265625 C-11.98037109 46.23042969 -11.98037109 46.23042969 -13.37109375 46.234375 C-16.0546875 46.1015625 -16.0546875 46.1015625 -18.46792603 45.38729858 C-21.08866007 44.82644521 -21.08866007 44.82644521 -23.10531616 46.39028931 C-23.77229523 47.05249481 -24.43927429 47.71470032 -25.12646484 48.39697266 C-25.89010345 49.1416983 -26.65374207 49.88642395 -27.44052124 50.65371704 C-28.24905548 51.47439667 -29.05758972 52.29507629 -29.890625 53.140625 C-30.72937164 53.97363129 -31.56811829 54.80663757 -32.43228149 55.66488647 C-34.20296747 57.4314864 -35.96608636 59.20569836 -37.72216797 60.98681641 C-40.41919434 63.71594444 -43.14667265 66.41164103 -45.87890625 69.10546875 C-47.59307299 70.82360027 -49.30537761 72.54359207 -51.015625 74.265625 C-51.83630463 75.07415924 -52.65698425 75.88269348 -53.50253296 76.71572876 C-54.24725861 77.47936737 -54.99198425 78.24300598 -55.75927734 79.02978516 C-56.42148285 79.69676422 -57.08368835 80.36374329 -57.76596069 81.05093384 C-59.32900414 83.06852712 -59.32900414 83.06852712 -58.77774048 85.69711304 C-58.41982925 86.88731552 -58.41982925 86.88731552 -58.0546875 88.1015625 C-57.18143173 96.22284116 -58.34858822 102.34469452 -63.0546875 109.1015625 C-67.52151163 114.13071841 -72.87231967 117.59365876 -79.66015625 118.41796875 C-85.9939959 118.688795 -90.95192045 117.99878784 -96.0546875 114.1015625 C-102.68547555 107.894768 -106.00248154 102.87379596 -106.4296875 93.7265625 C-106.25680824 87.00246918 -104.59983783 82.77492003 -99.9609375 77.90234375 C-94.49354746 72.82678333 -90.2788878 69.79451824 -82.6171875 69.9140625 C-81.25787109 69.92373047 -81.25787109 69.92373047 -79.87109375 69.93359375 C-77.0546875 70.1015625 -77.0546875 70.1015625 -74.43701172 71.11230469 C-69.61026814 71.09697506 -67.92457163 68.846716 -64.55555725 65.57505798 C-63.7521843 64.75751541 -62.94881134 63.93997284 -62.12109375 63.09765625 C-61.28376205 62.26702164 -60.44643036 61.43638702 -59.58372498 60.58058167 C-57.81778364 58.81940459 -56.06065498 57.04935337 -54.31176758 55.27124023 C-51.62716067 52.54917483 -48.9073134 49.86641946 -46.18164062 47.18554688 C-44.47170935 45.47098997 -42.76395078 43.75426291 -41.05859375 42.03515625 C-40.24105118 41.23178329 -39.42350861 40.42841034 -38.58119202 39.60069275 C-34.18379603 35.38594948 -34.18379603 35.38594948 -33.03955078 29.71264648 C-33.54204346 28.42015991 -33.54204346 28.42015991 -34.0546875 27.1015625 C-34.68371819 19.94504942 -34.53825398 13.95643256 -30.0546875 8.1015625 C-21.5267617 -0.85594165 -12.0492209 -5.21970298 0 0 Z " fill="#1B1B1D" transform="translate(122.0546875,377.8984375)"/>
<path d="M0 0 C5.34086851 3.21523857 8.83087845 7.38601381 10.3359375 13.40625 C19.5759375 13.40625 28.8159375 13.40625 38.3359375 13.40625 C38.9959375 11.42625 39.6559375 9.44625 40.3359375 7.40625 C42.32421875 5.140625 42.32421875 5.140625 44.6484375 3.15625 C45.40769531 2.49109375 46.16695313 1.8259375 46.94921875 1.140625 C52.50973999 -2.9000811 57.66540422 -3.22709313 64.3359375 -2.59375 C71.64193432 -1.12988907 77.29859108 3.37067456 81.7265625 9.25390625 C84.89633395 14.68939462 85.31116582 20.25546785 84.3359375 26.40625 C81.56029902 34.94195239 76.70362842 39.88642832 69.0859375 44.28125 C62.73826449 46.1855519 56.27361126 46.60960262 50.0859375 43.90625 C45.65092009 41.34582758 42.1849843 37.63440062 39.3359375 33.40625 C38.8409375 31.42625 38.8409375 31.42625 38.3359375 29.40625 C29.0959375 29.40625 19.8559375 29.40625 10.3359375 29.40625 C9.6759375 31.38625 9.0159375 33.36625 8.3359375 35.40625 C6.53125 37.48828125 6.53125 37.48828125 4.4609375 39.21875 C3.44386719 40.09466797 3.44386719 40.09466797 2.40625 40.98828125 C0.3359375 42.40625 0.3359375 42.40625 -3.6640625 43.40625 C-3.6640625 52.64625 -3.6640625 61.88625 -3.6640625 71.40625 C-0.6940625 72.39625 -0.6940625 72.39625 2.3359375 73.40625 C4.6015625 75.39453125 4.6015625 75.39453125 6.5859375 77.71875 C7.25109375 78.47800781 7.91625 79.23726563 8.6015625 80.01953125 C12.78593093 85.77774997 13.22687509 91.4829225 12.3359375 98.40625 C9.59706308 106.94077832 4.68473517 111.89732827 -2.9140625 116.28125 C-9.21459569 118.17140996 -15.69033395 118.61274178 -21.8515625 115.96875 C-27.5972394 112.63981142 -32.11520209 107.37489912 -35.1640625 101.53125 C-36.30150813 94.42221483 -36.77163265 87.67293401 -33.0703125 81.26171875 C-29.42217561 76.4482048 -25.55199086 72.87823209 -19.6640625 71.40625 C-19.6640625 62.16625 -19.6640625 52.92625 -19.6640625 43.40625 C-21.6440625 42.74625 -23.6240625 42.08625 -25.6640625 41.40625 C-31.54267835 36.54355028 -35.01551093 30.48116602 -35.9765625 22.9609375 C-36.27150655 16.93301844 -35.31973424 12.26751561 -31.6640625 7.40625 C-22.31806827 -2.42796781 -12.82343363 -5.66334608 0 0 Z " fill="#1A1B1B" transform="translate(123.6640625,18.59375)"/>
<path d="M0 0 C6.517154 3.6904366 11.82881353 8.78641294 13.9453125 16.1015625 C15.07677143 23.27925509 13.68914171 29.8826462 9.9453125 36.1015625 C6.30310107 40.2065139 3.31111676 42.76011144 -2.0546875 44.1015625 C-2.0546875 53.3415625 -2.0546875 62.5815625 -2.0546875 72.1015625 C0.9153125 73.0915625 0.9153125 73.0915625 3.9453125 74.1015625 C6.28125 76.16015625 6.28125 76.16015625 8.3203125 78.5390625 C9.00867187 79.32152344 9.69703125 80.10398437 10.40625 80.91015625 C11.9453125 83.1015625 11.9453125 83.1015625 11.9453125 86.1015625 C21.1853125 86.1015625 30.4253125 86.1015625 39.9453125 86.1015625 C40.6053125 84.1215625 41.2653125 82.1415625 41.9453125 80.1015625 C43.93359375 77.8359375 43.93359375 77.8359375 46.2578125 75.8515625 C47.01707031 75.18640625 47.77632813 74.52125 48.55859375 73.8359375 C54.11911499 69.7952314 59.27477922 69.46821937 65.9453125 70.1015625 C73.25130932 71.56542343 78.90796608 76.06598706 83.3359375 81.94921875 C86.50570895 87.38470712 86.92054082 92.95078035 85.9453125 99.1015625 C83.16233376 107.65983784 78.29342026 112.68594708 70.5703125 116.9765625 C64.13539663 118.97360536 58.17296237 118.86173138 51.93359375 116.2109375 C45.40549435 112.5685402 42.32935899 109.25370197 39.9453125 102.1015625 C30.7053125 102.1015625 21.4653125 102.1015625 11.9453125 102.1015625 C11.2853125 104.0815625 10.6253125 106.0615625 9.9453125 108.1015625 C5.08261278 113.98017835 -0.97977148 117.45301093 -8.5 118.4140625 C-14.53275334 118.70924309 -19.18663949 117.75259851 -24.0546875 114.1015625 C-30.68913654 107.90235214 -34.00272204 102.86864646 -34.4296875 93.7265625 C-34.27008708 87.18294512 -32.65736725 82.84824297 -28.1484375 78.08984375 C-24.70629652 74.92384468 -22.68402068 73.25889579 -18.0546875 72.1015625 C-18.0546875 62.8615625 -18.0546875 53.6215625 -18.0546875 44.1015625 C-20.0346875 43.4415625 -22.0146875 42.7815625 -24.0546875 42.1015625 C-29.93330335 37.23886278 -33.40613593 31.17647852 -34.3671875 23.65625 C-34.66213155 17.62833094 -33.71035924 12.96282811 -30.0546875 8.1015625 C-21.53578211 -0.86236034 -12.04227969 -5.21669606 0 0 Z " fill="#1A1B1B" transform="translate(50.0546875,233.8984375)"/>
<path d="M0 0 C6.517154 3.6904366 11.82881353 8.78641294 13.9453125 16.1015625 C15.07677143 23.27925509 13.68914171 29.8826462 9.9453125 36.1015625 C6.30310107 40.2065139 3.31111676 42.76011144 -2.0546875 44.1015625 C-2.0546875 53.3415625 -2.0546875 62.5815625 -2.0546875 72.1015625 C0.9153125 73.0915625 0.9153125 73.0915625 3.9453125 74.1015625 C6.2109375 76.08984375 6.2109375 76.08984375 8.1953125 78.4140625 C8.86046875 79.17332031 9.525625 79.93257813 10.2109375 80.71484375 C14.39530593 86.47306247 14.83625009 92.178235 13.9453125 99.1015625 C11.20643808 107.63609082 6.29411017 112.59264077 -1.3046875 116.9765625 C-7.60522069 118.86672246 -14.08095895 119.30805428 -20.2421875 116.6640625 C-25.9878644 113.33512392 -30.50582709 108.07021162 -33.5546875 102.2265625 C-34.69213313 95.11752733 -35.16225765 88.36824651 -31.4609375 81.95703125 C-27.81280061 77.1435173 -23.94261586 73.57354459 -18.0546875 72.1015625 C-18.0546875 62.8615625 -18.0546875 53.6215625 -18.0546875 44.1015625 C-20.0346875 43.4415625 -22.0146875 42.7815625 -24.0546875 42.1015625 C-29.93330335 37.23886278 -33.40613593 31.17647852 -34.3671875 23.65625 C-34.66213155 17.62833094 -33.71035924 12.96282811 -30.0546875 8.1015625 C-21.53578211 -0.86236034 -12.04227969 -5.21669606 0 0 Z " fill="#1A1B1B" transform="translate(50.0546875,89.8984375)"/>
<path d="M0 0 C6.517154 3.6904366 11.82881353 8.78641294 13.9453125 16.1015625 C15.07677143 23.27925509 13.68914171 29.8826462 9.9453125 36.1015625 C6.30310107 40.2065139 3.31111676 42.76011144 -2.0546875 44.1015625 C-2.0546875 53.3415625 -2.0546875 62.5815625 -2.0546875 72.1015625 C0.9153125 73.0915625 0.9153125 73.0915625 3.9453125 74.1015625 C9.97159162 79.20311948 13.17991359 84.35568053 14.22265625 92.18359375 C14.743032 99.43077797 12.05472128 105.50913876 7.3359375 110.9609375 C1.97647899 115.92704125 -3.78658304 118.19402232 -11.0546875 118.5390625 C-18.72064811 118.23429954 -23.25480819 115.24581328 -28.4296875 109.7265625 C-33.45285435 103.65936489 -34.54938804 98.63428447 -34.359375 90.84375 C-33.536071 83.43401397 -29.55159284 79.16238563 -24.0546875 74.44921875 C-22.0546875 73.1015625 -22.0546875 73.1015625 -18.0546875 72.1015625 C-18.0546875 62.8615625 -18.0546875 53.6215625 -18.0546875 44.1015625 C-20.0346875 43.4415625 -22.0146875 42.7815625 -24.0546875 42.1015625 C-29.93330335 37.23886278 -33.40613593 31.17647852 -34.3671875 23.65625 C-34.66213155 17.62833094 -33.71035924 12.96282811 -30.0546875 8.1015625 C-21.53578211 -0.86236034 -12.04227969 -5.21669606 0 0 Z " fill="#1A1B1B" transform="translate(482.0546875,377.8984375)"/>
<path d="M0 0 C6.50099074 3.68128391 11.87819747 8.78320492 13.9453125 16.1015625 C15.20812266 24.11138693 13.56404504 30.47013291 8.9453125 37.1015625 C4.47848837 42.13071841 -0.87231967 45.59365876 -7.66015625 46.41796875 C-13.9939959 46.688795 -18.95192045 45.99878784 -24.0546875 42.1015625 C-30.68547555 35.894768 -34.00248154 30.87379596 -34.4296875 21.7265625 C-34.25680824 15.00246918 -32.59983783 10.77492003 -27.9609375 5.90234375 C-19.7156089 -1.75206963 -10.78488932 -4.67199659 0 0 Z " fill="#1B1B1C" transform="translate(410.0546875,449.8984375)"/>
<path d="M0 0 C6.50099074 3.68128391 11.87819747 8.78320492 13.9453125 16.1015625 C15.20812266 24.11138693 13.56404504 30.47013291 8.9453125 37.1015625 C4.47848837 42.13071841 -0.87231967 45.59365876 -7.66015625 46.41796875 C-13.9939959 46.688795 -18.95192045 45.99878784 -24.0546875 42.1015625 C-30.68547555 35.894768 -34.00248154 30.87379596 -34.4296875 21.7265625 C-34.25680824 15.00246918 -32.59983783 10.77492003 -27.9609375 5.90234375 C-19.7156089 -1.75206963 -10.78488932 -4.67199659 0 0 Z " fill="#1B1B1C" transform="translate(266.0546875,449.8984375)"/>
<path d="M0 0 C6.50099074 3.68128391 11.87819747 8.78320492 13.9453125 16.1015625 C15.20812266 24.11138693 13.56404504 30.47013291 8.9453125 37.1015625 C4.47848837 42.13071841 -0.87231967 45.59365876 -7.66015625 46.41796875 C-13.9939959 46.688795 -18.95192045 45.99878784 -24.0546875 42.1015625 C-30.68547555 35.894768 -34.00248154 30.87379596 -34.4296875 21.7265625 C-34.25680824 15.00246918 -32.59983783 10.77492003 -27.9609375 5.90234375 C-19.7156089 -1.75206963 -10.78488932 -4.67199659 0 0 Z " fill="#1B1B1C" transform="translate(122.0546875,449.8984375)"/>
<path d="M0 0 C6.50099074 3.68128391 11.87819747 8.78320492 13.9453125 16.1015625 C15.20812266 24.11138693 13.56404504 30.47013291 8.9453125 37.1015625 C4.47848837 42.13071841 -0.87231967 45.59365876 -7.66015625 46.41796875 C-13.9939959 46.688795 -18.95192045 45.99878784 -24.0546875 42.1015625 C-30.68547555 35.894768 -34.00248154 30.87379596 -34.4296875 21.7265625 C-34.25680824 15.00246918 -32.59983783 10.77492003 -27.9609375 5.90234375 C-19.7156089 -1.75206963 -10.78488932 -4.67199659 0 0 Z " fill="#1B1B1C" transform="translate(338.0546875,377.8984375)"/>
<path d="M0 0 C6.50099074 3.68128391 11.87819747 8.78320492 13.9453125 16.1015625 C15.20812266 24.11138693 13.56404504 30.47013291 8.9453125 37.1015625 C4.47848837 42.13071841 -0.87231967 45.59365876 -7.66015625 46.41796875 C-13.9939959 46.688795 -18.95192045 45.99878784 -24.0546875 42.1015625 C-30.68547555 35.894768 -34.00248154 30.87379596 -34.4296875 21.7265625 C-34.25680824 15.00246918 -32.59983783 10.77492003 -27.9609375 5.90234375 C-19.7156089 -1.75206963 -10.78488932 -4.67199659 0 0 Z " fill="#1B1B1C" transform="translate(266.0546875,377.8984375)"/>
<path d="M0 0 C6.50099074 3.68128391 11.87819747 8.78320492 13.9453125 16.1015625 C15.20812266 24.11138693 13.56404504 30.47013291 8.9453125 37.1015625 C4.47848837 42.13071841 -0.87231967 45.59365876 -7.66015625 46.41796875 C-13.9939959 46.688795 -18.95192045 45.99878784 -24.0546875 42.1015625 C-30.68547555 35.894768 -34.00248154 30.87379596 -34.4296875 21.7265625 C-34.25680824 15.00246918 -32.59983783 10.77492003 -27.9609375 5.90234375 C-19.7156089 -1.75206963 -10.78488932 -4.67199659 0 0 Z " fill="#1B1B1C" transform="translate(194.0546875,377.8984375)"/>
<path d="M0 0 C6.50099074 3.68128391 11.87819747 8.78320492 13.9453125 16.1015625 C15.20812266 24.11138693 13.56404504 30.47013291 8.9453125 37.1015625 C4.47848837 42.13071841 -0.87231967 45.59365876 -7.66015625 46.41796875 C-13.9939959 46.688795 -18.95192045 45.99878784 -24.0546875 42.1015625 C-30.68547555 35.894768 -34.00248154 30.87379596 -34.4296875 21.7265625 C-34.25680824 15.00246918 -32.59983783 10.77492003 -27.9609375 5.90234375 C-19.7156089 -1.75206963 -10.78488932 -4.67199659 0 0 Z " fill="#1B1B1C" transform="translate(50.0546875,377.8984375)"/>
<path d="M0 0 C6.50099074 3.68128391 11.87819747 8.78320492 13.9453125 16.1015625 C15.20812266 24.11138693 13.56404504 30.47013291 8.9453125 37.1015625 C4.47848837 42.13071841 -0.87231967 45.59365876 -7.66015625 46.41796875 C-13.9939959 46.688795 -18.95192045 45.99878784 -24.0546875 42.1015625 C-30.68547555 35.894768 -34.00248154 30.87379596 -34.4296875 21.7265625 C-34.25680824 15.00246918 -32.59983783 10.77492003 -27.9609375 5.90234375 C-19.7156089 -1.75206963 -10.78488932 -4.67199659 0 0 Z " fill="#1B1B1C" transform="translate(482.0546875,305.8984375)"/>
<path d="M0 0 C6.50099074 3.68128391 11.87819747 8.78320492 13.9453125 16.1015625 C15.20812266 24.11138693 13.56404504 30.47013291 8.9453125 37.1015625 C4.47848837 42.13071841 -0.87231967 45.59365876 -7.66015625 46.41796875 C-13.9939959 46.688795 -18.95192045 45.99878784 -24.0546875 42.1015625 C-30.68547555 35.894768 -34.00248154 30.87379596 -34.4296875 21.7265625 C-34.25680824 15.00246918 -32.59983783 10.77492003 -27.9609375 5.90234375 C-19.7156089 -1.75206963 -10.78488932 -4.67199659 0 0 Z " fill="#1B1B1C" transform="translate(194.0546875,305.8984375)"/>
<path d="M0 0 C6.50099074 3.68128391 11.87819747 8.78320492 13.9453125 16.1015625 C15.20812266 24.11138693 13.56404504 30.47013291 8.9453125 37.1015625 C4.47848837 42.13071841 -0.87231967 45.59365876 -7.66015625 46.41796875 C-13.9939959 46.688795 -18.95192045 45.99878784 -24.0546875 42.1015625 C-30.68547555 35.894768 -34.00248154 30.87379596 -34.4296875 21.7265625 C-34.25680824 15.00246918 -32.59983783 10.77492003 -27.9609375 5.90234375 C-19.7156089 -1.75206963 -10.78488932 -4.67199659 0 0 Z " fill="#1B1B1C" transform="translate(410.0546875,233.8984375)"/>
<path d="M0 0 C6.50099074 3.68128391 11.87819747 8.78320492 13.9453125 16.1015625 C15.20812266 24.11138693 13.56404504 30.47013291 8.9453125 37.1015625 C4.47848837 42.13071841 -0.87231967 45.59365876 -7.66015625 46.41796875 C-13.9939959 46.688795 -18.95192045 45.99878784 -24.0546875 42.1015625 C-30.68547555 35.894768 -34.00248154 30.87379596 -34.4296875 21.7265625 C-34.25680824 15.00246918 -32.59983783 10.77492003 -27.9609375 5.90234375 C-19.7156089 -1.75206963 -10.78488932 -4.67199659 0 0 Z " fill="#1B1B1C" transform="translate(338.0546875,233.8984375)"/>
<path d="M0 0 C6.50099074 3.68128391 11.87819747 8.78320492 13.9453125 16.1015625 C15.20812266 24.11138693 13.56404504 30.47013291 8.9453125 37.1015625 C4.47848837 42.13071841 -0.87231967 45.59365876 -7.66015625 46.41796875 C-13.9939959 46.688795 -18.95192045 45.99878784 -24.0546875 42.1015625 C-30.68547555 35.894768 -34.00248154 30.87379596 -34.4296875 21.7265625 C-34.25680824 15.00246918 -32.59983783 10.77492003 -27.9609375 5.90234375 C-19.7156089 -1.75206963 -10.78488932 -4.67199659 0 0 Z " fill="#1B1B1C" transform="translate(194.0546875,233.8984375)"/>
<path d="M0 0 C6.50099074 3.68128391 11.87819747 8.78320492 13.9453125 16.1015625 C15.20812266 24.11138693 13.56404504 30.47013291 8.9453125 37.1015625 C4.47848837 42.13071841 -0.87231967 45.59365876 -7.66015625 46.41796875 C-13.9939959 46.688795 -18.95192045 45.99878784 -24.0546875 42.1015625 C-30.68547555 35.894768 -34.00248154 30.87379596 -34.4296875 21.7265625 C-34.25680824 15.00246918 -32.59983783 10.77492003 -27.9609375 5.90234375 C-19.7156089 -1.75206963 -10.78488932 -4.67199659 0 0 Z " fill="#1B1B1C" transform="translate(482.0546875,161.8984375)"/>
<path d="M0 0 C6.50099074 3.68128391 11.87819747 8.78320492 13.9453125 16.1015625 C15.20812266 24.11138693 13.56404504 30.47013291 8.9453125 37.1015625 C4.47848837 42.13071841 -0.87231967 45.59365876 -7.66015625 46.41796875 C-13.9939959 46.688795 -18.95192045 45.99878784 -24.0546875 42.1015625 C-30.68547555 35.894768 -34.00248154 30.87379596 -34.4296875 21.7265625 C-34.25680824 15.00246918 -32.59983783 10.77492003 -27.9609375 5.90234375 C-19.7156089 -1.75206963 -10.78488932 -4.67199659 0 0 Z " fill="#1B1B1C" transform="translate(338.0546875,161.8984375)"/>
<path d="M0 0 C6.50099074 3.68128391 11.87819747 8.78320492 13.9453125 16.1015625 C15.20812266 24.11138693 13.56404504 30.47013291 8.9453125 37.1015625 C4.47848837 42.13071841 -0.87231967 45.59365876 -7.66015625 46.41796875 C-13.9939959 46.688795 -18.95192045 45.99878784 -24.0546875 42.1015625 C-30.68547555 35.894768 -34.00248154 30.87379596 -34.4296875 21.7265625 C-34.25680824 15.00246918 -32.59983783 10.77492003 -27.9609375 5.90234375 C-19.7156089 -1.75206963 -10.78488932 -4.67199659 0 0 Z " fill="#1B1B1C" transform="translate(122.0546875,161.8984375)"/>
<path d="M0 0 C6.50099074 3.68128391 11.87819747 8.78320492 13.9453125 16.1015625 C15.20812266 24.11138693 13.56404504 30.47013291 8.9453125 37.1015625 C4.47848837 42.13071841 -0.87231967 45.59365876 -7.66015625 46.41796875 C-13.9939959 46.688795 -18.95192045 45.99878784 -24.0546875 42.1015625 C-30.68547555 35.894768 -34.00248154 30.87379596 -34.4296875 21.7265625 C-34.25680824 15.00246918 -32.59983783 10.77492003 -27.9609375 5.90234375 C-19.7156089 -1.75206963 -10.78488932 -4.67199659 0 0 Z " fill="#1B1B1C" transform="translate(410.0546875,89.8984375)"/>
<path d="M0 0 C6.50099074 3.68128391 11.87819747 8.78320492 13.9453125 16.1015625 C15.20812266 24.11138693 13.56404504 30.47013291 8.9453125 37.1015625 C4.47848837 42.13071841 -0.87231967 45.59365876 -7.66015625 46.41796875 C-13.9939959 46.688795 -18.95192045 45.99878784 -24.0546875 42.1015625 C-30.68547555 35.894768 -34.00248154 30.87379596 -34.4296875 21.7265625 C-34.25680824 15.00246918 -32.59983783 10.77492003 -27.9609375 5.90234375 C-19.7156089 -1.75206963 -10.78488932 -4.67199659 0 0 Z " fill="#1B1B1C" transform="translate(194.0546875,89.8984375)"/>
<path d="M0 0 C6.50099074 3.68128391 11.87819747 8.78320492 13.9453125 16.1015625 C15.20812266 24.11138693 13.56404504 30.47013291 8.9453125 37.1015625 C4.47848837 42.13071841 -0.87231967 45.59365876 -7.66015625 46.41796875 C-13.9939959 46.688795 -18.95192045 45.99878784 -24.0546875 42.1015625 C-30.68547555 35.894768 -34.00248154 30.87379596 -34.4296875 21.7265625 C-34.25680824 15.00246918 -32.59983783 10.77492003 -27.9609375 5.90234375 C-19.7156089 -1.75206963 -10.78488932 -4.67199659 0 0 Z " fill="#1B1B1C" transform="translate(482.0546875,17.8984375)"/>
<path d="M0 0 C6.50099074 3.68128391 11.87819747 8.78320492 13.9453125 16.1015625 C15.20812266 24.11138693 13.56404504 30.47013291 8.9453125 37.1015625 C4.47848837 42.13071841 -0.87231967 45.59365876 -7.66015625 46.41796875 C-13.9939959 46.688795 -18.95192045 45.99878784 -24.0546875 42.1015625 C-30.68547555 35.894768 -34.00248154 30.87379596 -34.4296875 21.7265625 C-34.25680824 15.00246918 -32.59983783 10.77492003 -27.9609375 5.90234375 C-19.7156089 -1.75206963 -10.78488932 -4.67199659 0 0 Z " fill="#1B1B1C" transform="translate(338.0546875,17.8984375)"/>
<path d="M0 0 C6.50099074 3.68128391 11.87819747 8.78320492 13.9453125 16.1015625 C15.20812266 24.11138693 13.56404504 30.47013291 8.9453125 37.1015625 C4.47848837 42.13071841 -0.87231967 45.59365876 -7.66015625 46.41796875 C-13.9939959 46.688795 -18.95192045 45.99878784 -24.0546875 42.1015625 C-30.68547555 35.894768 -34.00248154 30.87379596 -34.4296875 21.7265625 C-34.25680824 15.00246918 -32.59983783 10.77492003 -27.9609375 5.90234375 C-19.7156089 -1.75206963 -10.78488932 -4.67199659 0 0 Z " fill="#1B1B1C" transform="translate(266.0546875,17.8984375)"/>
<path d="M0 0 C6.50099074 3.68128391 11.87819747 8.78320492 13.9453125 16.1015625 C15.20812266 24.11138693 13.56404504 30.47013291 8.9453125 37.1015625 C4.47848837 42.13071841 -0.87231967 45.59365876 -7.66015625 46.41796875 C-13.9939959 46.688795 -18.95192045 45.99878784 -24.0546875 42.1015625 C-30.68547555 35.894768 -34.00248154 30.87379596 -34.4296875 21.7265625 C-34.25680824 15.00246918 -32.59983783 10.77492003 -27.9609375 5.90234375 C-19.7156089 -1.75206963 -10.78488932 -4.67199659 0 0 Z " fill="#1B1B1C" transform="translate(50.0546875,17.8984375)"/>
<path d="M0 0 C4.0743356 0.84881992 5.54405875 2.30225596 8 5.625 C8.625 8.625 8.625 8.625 8 11.625 C5.54405875 14.94774404 4.0743356 16.40118008 0 17.25 C-4.0743356 16.40118008 -5.54405875 14.94774404 -8 11.625 C-8.625 8.625 -8.625 8.625 -8 5.625 C-5.54405875 2.30225596 -4.0743356 0.84881992 0 0 Z " fill="#EBD13E" transform="translate(472,463.375)"/>
<path d="M0 0 C4.0743356 0.84881992 5.54405875 2.30225596 8 5.625 C8.625 8.625 8.625 8.625 8 11.625 C5.54405875 14.94774404 4.0743356 16.40118008 0 17.25 C-4.0743356 16.40118008 -5.54405875 14.94774404 -8 11.625 C-8.625 8.625 -8.625 8.625 -8 5.625 C-5.54405875 2.30225596 -4.0743356 0.84881992 0 0 Z " fill="#EBD13E" transform="translate(400,463.375)"/>
<path d="M0 0 C4.0743356 0.84881992 5.54405875 2.30225596 8 5.625 C8.625 8.625 8.625 8.625 8 11.625 C5.54405875 14.94774404 4.0743356 16.40118008 0 17.25 C-4.0743356 16.40118008 -5.54405875 14.94774404 -8 11.625 C-8.625 8.625 -8.625 8.625 -8 5.625 C-5.54405875 2.30225596 -4.0743356 0.84881992 0 0 Z " fill="#EBD13E" transform="translate(328,463.375)"/>
<path d="M0 0 C4.0743356 0.84881992 5.54405875 2.30225596 8 5.625 C8.625 8.625 8.625 8.625 8 11.625 C5.54405875 14.94774404 4.0743356 16.40118008 0 17.25 C-4.0743356 16.40118008 -5.54405875 14.94774404 -8 11.625 C-8.625 8.625 -8.625 8.625 -8 5.625 C-5.54405875 2.30225596 -4.0743356 0.84881992 0 0 Z " fill="#EBD13E" transform="translate(256,463.375)"/>
<path d="M0 0 C4.0743356 0.84881992 5.54405875 2.30225596 8 5.625 C8.625 8.625 8.625 8.625 8 11.625 C5.54405875 14.94774404 4.0743356 16.40118008 0 17.25 C-4.0743356 16.40118008 -5.54405875 14.94774404 -8 11.625 C-8.625 8.625 -8.625 8.625 -8 5.625 C-5.54405875 2.30225596 -4.0743356 0.84881992 0 0 Z " fill="#EBD13E" transform="translate(184,463.375)"/>
<path d="M0 0 C4.0743356 0.84881992 5.54405875 2.30225596 8 5.625 C8.625 8.625 8.625 8.625 8 11.625 C5.54405875 14.94774404 4.0743356 16.40118008 0 17.25 C-4.0743356 16.40118008 -5.54405875 14.94774404 -8 11.625 C-8.625 8.625 -8.625 8.625 -8 5.625 C-5.54405875 2.30225596 -4.0743356 0.84881992 0 0 Z " fill="#EBD13E" transform="translate(112,463.375)"/>
<path d="M0 0 C4.0743356 0.84881992 5.54405875 2.30225596 8 5.625 C8.625 8.625 8.625 8.625 8 11.625 C5.54405875 14.94774404 4.0743356 16.40118008 0 17.25 C-4.0743356 16.40118008 -5.54405875 14.94774404 -8 11.625 C-8.625 8.625 -8.625 8.625 -8 5.625 C-5.54405875 2.30225596 -4.0743356 0.84881992 0 0 Z " fill="#EBD13E" transform="translate(40,463.375)"/>
<path d="M0 0 C4.0743356 0.84881992 5.54405875 2.30225596 8 5.625 C8.625 8.625 8.625 8.625 8 11.625 C5.54405875 14.94774404 4.0743356 16.40118008 0 17.25 C-4.0743356 16.40118008 -5.54405875 14.94774404 -8 11.625 C-8.625 8.625 -8.625 8.625 -8 5.625 C-5.54405875 2.30225596 -4.0743356 0.84881992 0 0 Z " fill="#EBD13E" transform="translate(472,391.375)"/>
<path d="M0 0 C4.0743356 0.84881992 5.54405875 2.30225596 8 5.625 C8.625 8.625 8.625 8.625 8 11.625 C5.54405875 14.94774404 4.0743356 16.40118008 0 17.25 C-4.0743356 16.40118008 -5.54405875 14.94774404 -8 11.625 C-8.625 8.625 -8.625 8.625 -8 5.625 C-5.54405875 2.30225596 -4.0743356 0.84881992 0 0 Z " fill="#EBD13E" transform="translate(400,391.375)"/>
<path d="M0 0 C4.0743356 0.84881992 5.54405875 2.30225596 8 5.625 C8.625 8.625 8.625 8.625 8 11.625 C5.54405875 14.94774404 4.0743356 16.40118008 0 17.25 C-4.0743356 16.40118008 -5.54405875 14.94774404 -8 11.625 C-8.625 8.625 -8.625 8.625 -8 5.625 C-5.54405875 2.30225596 -4.0743356 0.84881992 0 0 Z " fill="#EBD13E" transform="translate(328,391.375)"/>
<path d="M0 0 C4.0743356 0.84881992 5.54405875 2.30225596 8 5.625 C8.625 8.625 8.625 8.625 8 11.625 C5.54405875 14.94774404 4.0743356 16.40118008 0 17.25 C-4.0743356 16.40118008 -5.54405875 14.94774404 -8 11.625 C-8.625 8.625 -8.625 8.625 -8 5.625 C-5.54405875 2.30225596 -4.0743356 0.84881992 0 0 Z " fill="#EBD13E" transform="translate(256,391.375)"/>
<path d="M0 0 C4.0743356 0.84881992 5.54405875 2.30225596 8 5.625 C8.625 8.625 8.625 8.625 8 11.625 C5.54405875 14.94774404 4.0743356 16.40118008 0 17.25 C-4.0743356 16.40118008 -5.54405875 14.94774404 -8 11.625 C-8.625 8.625 -8.625 8.625 -8 5.625 C-5.54405875 2.30225596 -4.0743356 0.84881992 0 0 Z " fill="#EBD13E" transform="translate(184,391.375)"/>
<path d="M0 0 C4.0743356 0.84881992 5.54405875 2.30225596 8 5.625 C8.625 8.625 8.625 8.625 8 11.625 C5.54405875 14.94774404 4.0743356 16.40118008 0 17.25 C-4.0743356 16.40118008 -5.54405875 14.94774404 -8 11.625 C-8.625 8.625 -8.625 8.625 -8 5.625 C-5.54405875 2.30225596 -4.0743356 0.84881992 0 0 Z " fill="#EBD13E" transform="translate(112,391.375)"/>
<path d="M0 0 C4.0743356 0.84881992 5.54405875 2.30225596 8 5.625 C8.625 8.625 8.625 8.625 8 11.625 C5.54405875 14.94774404 4.0743356 16.40118008 0 17.25 C-4.0743356 16.40118008 -5.54405875 14.94774404 -8 11.625 C-8.625 8.625 -8.625 8.625 -8 5.625 C-5.54405875 2.30225596 -4.0743356 0.84881992 0 0 Z " fill="#EBD13E" transform="translate(40,391.375)"/>
<path d="M0 0 C4.0743356 0.84881992 5.54405875 2.30225596 8 5.625 C8.625 8.625 8.625 8.625 8 11.625 C5.54405875 14.94774404 4.0743356 16.40118008 0 17.25 C-4.0743356 16.40118008 -5.54405875 14.94774404 -8 11.625 C-8.625 8.625 -8.625 8.625 -8 5.625 C-5.54405875 2.30225596 -4.0743356 0.84881992 0 0 Z " fill="#EBD13E" transform="translate(472,319.375)"/>
<path d="M0 0 C4.0743356 0.84881992 5.54405875 2.30225596 8 5.625 C8.625 8.625 8.625 8.625 8 11.625 C5.54405875 14.94774404 4.0743356 16.40118008 0 17.25 C-4.0743356 16.40118008 -5.54405875 14.94774404 -8 11.625 C-8.625 8.625 -8.625 8.625 -8 5.625 C-5.54405875 2.30225596 -4.0743356 0.84881992 0 0 Z " fill="#EBD13E" transform="translate(400,319.375)"/>
<path d="M0 0 C4.0743356 0.84881992 5.54405875 2.30225596 8 5.625 C8.625 8.625 8.625 8.625 8 11.625 C5.54405875 14.94774404 4.0743356 16.40118008 0 17.25 C-4.0743356 16.40118008 -5.54405875 14.94774404 -8 11.625 C-8.625 8.625 -8.625 8.625 -8 5.625 C-5.54405875 2.30225596 -4.0743356 0.84881992 0 0 Z " fill="#EBD13E" transform="translate(328,319.375)"/>
<path d="M0 0 C4.0743356 0.84881992 5.54405875 2.30225596 8 5.625 C8.625 8.625 8.625 8.625 8 11.625 C5.54405875 14.94774404 4.0743356 16.40118008 0 17.25 C-4.0743356 16.40118008 -5.54405875 14.94774404 -8 11.625 C-8.625 8.625 -8.625 8.625 -8 5.625 C-5.54405875 2.30225596 -4.0743356 0.84881992 0 0 Z " fill="#EBD13E" transform="translate(256,319.375)"/>
<path d="M0 0 C4.0743356 0.84881992 5.54405875 2.30225596 8 5.625 C8.625 8.625 8.625 8.625 8 11.625 C5.54405875 14.94774404 4.0743356 16.40118008 0 17.25 C-4.0743356 16.40118008 -5.54405875 14.94774404 -8 11.625 C-8.625 8.625 -8.625 8.625 -8 5.625 C-5.54405875 2.30225596 -4.0743356 0.84881992 0 0 Z " fill="#EBD13E" transform="translate(184,319.375)"/>
<path d="M0 0 C4.0743356 0.84881992 5.54405875 2.30225596 8 5.625 C8.625 8.625 8.625 8.625 8 11.625 C5.54405875 14.94774404 4.0743356 16.40118008 0 17.25 C-4.0743356 16.40118008 -5.54405875 14.94774404 -8 11.625 C-8.625 8.625 -8.625 8.625 -8 5.625 C-5.54405875 2.30225596 -4.0743356 0.84881992 0 0 Z " fill="#EBD13E" transform="translate(112,319.375)"/>
<path d="M0 0 C4.0743356 0.84881992 5.54405875 2.30225596 8 5.625 C8.625 8.625 8.625 8.625 8 11.625 C5.54405875 14.94774404 4.0743356 16.40118008 0 17.25 C-4.0743356 16.40118008 -5.54405875 14.94774404 -8 11.625 C-8.625 8.625 -8.625 8.625 -8 5.625 C-5.54405875 2.30225596 -4.0743356 0.84881992 0 0 Z " fill="#EBD13E" transform="translate(40,319.375)"/>
<path d="M0 0 C4.0743356 0.84881992 5.54405875 2.30225596 8 5.625 C8.625 8.625 8.625 8.625 8 11.625 C5.54405875 14.94774404 4.0743356 16.40118008 0 17.25 C-4.0743356 16.40118008 -5.54405875 14.94774404 -8 11.625 C-8.625 8.625 -8.625 8.625 -8 5.625 C-5.54405875 2.30225596 -4.0743356 0.84881992 0 0 Z " fill="#EBD13E" transform="translate(472,247.375)"/>
<path d="M0 0 C4.0743356 0.84881992 5.54405875 2.30225596 8 5.625 C8.625 8.625 8.625 8.625 8 11.625 C5.54405875 14.94774404 4.0743356 16.40118008 0 17.25 C-4.0743356 16.40118008 -5.54405875 14.94774404 -8 11.625 C-8.625 8.625 -8.625 8.625 -8 5.625 C-5.54405875 2.30225596 -4.0743356 0.84881992 0 0 Z " fill="#EBD13E" transform="translate(400,247.375)"/>
<path d="M0 0 C4.0743356 0.84881992 5.54405875 2.30225596 8 5.625 C8.625 8.625 8.625 8.625 8 11.625 C5.54405875 14.94774404 4.0743356 16.40118008 0 17.25 C-4.0743356 16.40118008 -5.54405875 14.94774404 -8 11.625 C-8.625 8.625 -8.625 8.625 -8 5.625 C-5.54405875 2.30225596 -4.0743356 0.84881992 0 0 Z " fill="#EBD13E" transform="translate(328,247.375)"/>
<path d="M0 0 C4.0743356 0.84881992 5.54405875 2.30225596 8 5.625 C8.625 8.625 8.625 8.625 8 11.625 C5.54405875 14.94774404 4.0743356 16.40118008 0 17.25 C-4.0743356 16.40118008 -5.54405875 14.94774404 -8 11.625 C-8.625 8.625 -8.625 8.625 -8 5.625 C-5.54405875 2.30225596 -4.0743356 0.84881992 0 0 Z " fill="#EBD13E" transform="translate(256,247.375)"/>
<path d="M0 0 C4.0743356 0.84881992 5.54405875 2.30225596 8 5.625 C8.625 8.625 8.625 8.625 8 11.625 C5.54405875 14.94774404 4.0743356 16.40118008 0 17.25 C-4.0743356 16.40118008 -5.54405875 14.94774404 -8 11.625 C-8.625 8.625 -8.625 8.625 -8 5.625 C-5.54405875 2.30225596 -4.0743356 0.84881992 0 0 Z " fill="#EBD13E" transform="translate(184,247.375)"/>
<path d="M0 0 C4.0743356 0.84881992 5.54405875 2.30225596 8 5.625 C8.625 8.625 8.625 8.625 8 11.625 C5.54405875 14.94774404 4.0743356 16.40118008 0 17.25 C-4.0743356 16.40118008 -5.54405875 14.94774404 -8 11.625 C-8.625 8.625 -8.625 8.625 -8 5.625 C-5.54405875 2.30225596 -4.0743356 0.84881992 0 0 Z " fill="#EBD13E" transform="translate(112,247.375)"/>
<path d="M0 0 C4.0743356 0.84881992 5.54405875 2.30225596 8 5.625 C8.625 8.625 8.625 8.625 8 11.625 C5.54405875 14.94774404 4.0743356 16.40118008 0 17.25 C-4.0743356 16.40118008 -5.54405875 14.94774404 -8 11.625 C-8.625 8.625 -8.625 8.625 -8 5.625 C-5.54405875 2.30225596 -4.0743356 0.84881992 0 0 Z " fill="#EBD13E" transform="translate(40,247.375)"/>
<path d="M0 0 C4.0743356 0.84881992 5.54405875 2.30225596 8 5.625 C8.625 8.625 8.625 8.625 8 11.625 C5.54405875 14.94774404 4.0743356 16.40118008 0 17.25 C-4.0743356 16.40118008 -5.54405875 14.94774404 -8 11.625 C-8.625 8.625 -8.625 8.625 -8 5.625 C-5.54405875 2.30225596 -4.0743356 0.84881992 0 0 Z " fill="#EBD13E" transform="translate(472,175.375)"/>
<path d="M0 0 C4.0743356 0.84881992 5.54405875 2.30225596 8 5.625 C8.625 8.625 8.625 8.625 8 11.625 C5.54405875 14.94774404 4.0743356 16.40118008 0 17.25 C-4.0743356 16.40118008 -5.54405875 14.94774404 -8 11.625 C-8.625 8.625 -8.625 8.625 -8 5.625 C-5.54405875 2.30225596 -4.0743356 0.84881992 0 0 Z " fill="#EBD13E" transform="translate(400,175.375)"/>
<path d="M0 0 C4.0743356 0.84881992 5.54405875 2.30225596 8 5.625 C8.625 8.625 8.625 8.625 8 11.625 C5.54405875 14.94774404 4.0743356 16.40118008 0 17.25 C-4.0743356 16.40118008 -5.54405875 14.94774404 -8 11.625 C-8.625 8.625 -8.625 8.625 -8 5.625 C-5.54405875 2.30225596 -4.0743356 0.84881992 0 0 Z " fill="#EBD13E" transform="translate(328,175.375)"/>
<path d="M0 0 C4.0743356 0.84881992 5.54405875 2.30225596 8 5.625 C8.625 8.625 8.625 8.625 8 11.625 C5.54405875 14.94774404 4.0743356 16.40118008 0 17.25 C-4.0743356 16.40118008 -5.54405875 14.94774404 -8 11.625 C-8.625 8.625 -8.625 8.625 -8 5.625 C-5.54405875 2.30225596 -4.0743356 0.84881992 0 0 Z " fill="#EBD13E" transform="translate(256,175.375)"/>
<path d="M0 0 C4.0743356 0.84881992 5.54405875 2.30225596 8 5.625 C8.625 8.625 8.625 8.625 8 11.625 C5.54405875 14.94774404 4.0743356 16.40118008 0 17.25 C-4.0743356 16.40118008 -5.54405875 14.94774404 -8 11.625 C-8.625 8.625 -8.625 8.625 -8 5.625 C-5.54405875 2.30225596 -4.0743356 0.84881992 0 0 Z " fill="#EBD13E" transform="translate(184,175.375)"/>
<path d="M0 0 C4.0743356 0.84881992 5.54405875 2.30225596 8 5.625 C8.625 8.625 8.625 8.625 8 11.625 C5.54405875 14.94774404 4.0743356 16.40118008 0 17.25 C-4.0743356 16.40118008 -5.54405875 14.94774404 -8 11.625 C-8.625 8.625 -8.625 8.625 -8 5.625 C-5.54405875 2.30225596 -4.0743356 0.84881992 0 0 Z " fill="#EBD13E" transform="translate(112,175.375)"/>
<path d="M0 0 C4.0743356 0.84881992 5.54405875 2.30225596 8 5.625 C8.625 8.625 8.625 8.625 8 11.625 C5.54405875 14.94774404 4.0743356 16.40118008 0 17.25 C-4.0743356 16.40118008 -5.54405875 14.94774404 -8 11.625 C-8.625 8.625 -8.625 8.625 -8 5.625 C-5.54405875 2.30225596 -4.0743356 0.84881992 0 0 Z " fill="#EBD13E" transform="translate(40,175.375)"/>
<path d="M0 0 C4.0743356 0.84881992 5.54405875 2.30225596 8 5.625 C8.625 8.625 8.625 8.625 8 11.625 C5.54405875 14.94774404 4.0743356 16.40118008 0 17.25 C-4.0743356 16.40118008 -5.54405875 14.94774404 -8 11.625 C-8.625 8.625 -8.625 8.625 -8 5.625 C-5.54405875 2.30225596 -4.0743356 0.84881992 0 0 Z " fill="#EBD13E" transform="translate(472,103.375)"/>
<path d="M0 0 C4.0743356 0.84881992 5.54405875 2.30225596 8 5.625 C8.625 8.625 8.625 8.625 8 11.625 C5.54405875 14.94774404 4.0743356 16.40118008 0 17.25 C-4.0743356 16.40118008 -5.54405875 14.94774404 -8 11.625 C-8.625 8.625 -8.625 8.625 -8 5.625 C-5.54405875 2.30225596 -4.0743356 0.84881992 0 0 Z " fill="#EBD13E" transform="translate(400,103.375)"/>
<path d="M0 0 C4.0743356 0.84881992 5.54405875 2.30225596 8 5.625 C8.625 8.625 8.625 8.625 8 11.625 C5.54405875 14.94774404 4.0743356 16.40118008 0 17.25 C-4.0743356 16.40118008 -5.54405875 14.94774404 -8 11.625 C-8.625 8.625 -8.625 8.625 -8 5.625 C-5.54405875 2.30225596 -4.0743356 0.84881992 0 0 Z " fill="#EBD13E" transform="translate(328,103.375)"/>
<path d="M0 0 C4.0743356 0.84881992 5.54405875 2.30225596 8 5.625 C8.625 8.625 8.625 8.625 8 11.625 C5.54405875 14.94774404 4.0743356 16.40118008 0 17.25 C-4.0743356 16.40118008 -5.54405875 14.94774404 -8 11.625 C-8.625 8.625 -8.625 8.625 -8 5.625 C-5.54405875 2.30225596 -4.0743356 0.84881992 0 0 Z " fill="#EBD13E" transform="translate(256,103.375)"/>
<path d="M0 0 C4.0743356 0.84881992 5.54405875 2.30225596 8 5.625 C8.625 8.625 8.625 8.625 8 11.625 C5.54405875 14.94774404 4.0743356 16.40118008 0 17.25 C-4.0743356 16.40118008 -5.54405875 14.94774404 -8 11.625 C-8.625 8.625 -8.625 8.625 -8 5.625 C-5.54405875 2.30225596 -4.0743356 0.84881992 0 0 Z " fill="#EBD13E" transform="translate(184,103.375)"/>
<path d="M0 0 C4.0743356 0.84881992 5.54405875 2.30225596 8 5.625 C8.625 8.625 8.625 8.625 8 11.625 C5.54405875 14.94774404 4.0743356 16.40118008 0 17.25 C-4.0743356 16.40118008 -5.54405875 14.94774404 -8 11.625 C-8.625 8.625 -8.625 8.625 -8 5.625 C-5.54405875 2.30225596 -4.0743356 0.84881992 0 0 Z " fill="#EBD13E" transform="translate(112,103.375)"/>
<path d="M0 0 C4.0743356 0.84881992 5.54405875 2.30225596 8 5.625 C8.625 8.625 8.625 8.625 8 11.625 C5.54405875 14.94774404 4.0743356 16.40118008 0 17.25 C-4.0743356 16.40118008 -5.54405875 14.94774404 -8 11.625 C-8.625 8.625 -8.625 8.625 -8 5.625 C-5.54405875 2.30225596 -4.0743356 0.84881992 0 0 Z " fill="#EBD13E" transform="translate(40,103.375)"/>
<path d="M0 0 C4.0743356 0.84881992 5.54405875 2.30225596 8 5.625 C8.625 8.625 8.625 8.625 8 11.625 C5.54405875 14.94774404 4.0743356 16.40118008 0 17.25 C-4.0743356 16.40118008 -5.54405875 14.94774404 -8 11.625 C-8.625 8.625 -8.625 8.625 -8 5.625 C-5.54405875 2.30225596 -4.0743356 0.84881992 0 0 Z " fill="#EBD13E" transform="translate(472,31.375)"/>
<path d="M0 0 C4.0743356 0.84881992 5.54405875 2.30225596 8 5.625 C8.625 8.625 8.625 8.625 8 11.625 C5.54405875 14.94774404 4.0743356 16.40118008 0 17.25 C-4.0743356 16.40118008 -5.54405875 14.94774404 -8 11.625 C-8.625 8.625 -8.625 8.625 -8 5.625 C-5.54405875 2.30225596 -4.0743356 0.84881992 0 0 Z " fill="#EBD13E" transform="translate(400,31.375)"/>
<path d="M0 0 C4.0743356 0.84881992 5.54405875 2.30225596 8 5.625 C8.625 8.625 8.625 8.625 8 11.625 C5.54405875 14.94774404 4.0743356 16.40118008 0 17.25 C-4.0743356 16.40118008 -5.54405875 14.94774404 -8 11.625 C-8.625 8.625 -8.625 8.625 -8 5.625 C-5.54405875 2.30225596 -4.0743356 0.84881992 0 0 Z " fill="#EBD13E" transform="translate(328,31.375)"/>
<path d="M0 0 C4.0743356 0.84881992 5.54405875 2.30225596 8 5.625 C8.625 8.625 8.625 8.625 8 11.625 C5.54405875 14.94774404 4.0743356 16.40118008 0 17.25 C-4.0743356 16.40118008 -5.54405875 14.94774404 -8 11.625 C-8.625 8.625 -8.625 8.625 -8 5.625 C-5.54405875 2.30225596 -4.0743356 0.84881992 0 0 Z " fill="#EBD13E" transform="translate(256,31.375)"/>
<path d="M0 0 C4.0743356 0.84881992 5.54405875 2.30225596 8 5.625 C8.625 8.625 8.625 8.625 8 11.625 C5.54405875 14.94774404 4.0743356 16.40118008 0 17.25 C-4.0743356 16.40118008 -5.54405875 14.94774404 -8 11.625 C-8.625 8.625 -8.625 8.625 -8 5.625 C-5.54405875 2.30225596 -4.0743356 0.84881992 0 0 Z " fill="#EBD13E" transform="translate(184,31.375)"/>
<path d="M0 0 C4.0743356 0.84881992 5.54405875 2.30225596 8 5.625 C8.625 8.625 8.625 8.625 8 11.625 C5.54405875 14.94774404 4.0743356 16.40118008 0 17.25 C-4.0743356 16.40118008 -5.54405875 14.94774404 -8 11.625 C-8.625 8.625 -8.625 8.625 -8 5.625 C-5.54405875 2.30225596 -4.0743356 0.84881992 0 0 Z " fill="#EBD13E" transform="translate(112,31.375)"/>
<path d="M0 0 C4.0743356 0.84881992 5.54405875 2.30225596 8 5.625 C8.625 8.625 8.625 8.625 8 11.625 C5.54405875 14.94774404 4.0743356 16.40118008 0 17.25 C-4.0743356 16.40118008 -5.54405875 14.94774404 -8 11.625 C-8.625 8.625 -8.625 8.625 -8 5.625 C-5.54405875 2.30225596 -4.0743356 0.84881992 0 0 Z " fill="#EBD13E" transform="translate(40,31.375)"/>
</svg>
