<?xml version="1.0" encoding="UTF-8"?>
<svg version="1.1" xmlns="http://www.w3.org/2000/svg" width="256" height="256">
<path d="M0 0 C8.42410397 6.22342513 15.03794997 13.4762771 17 24 C17.14441996 27.67523909 17.09930369 31.32461308 17 35 C17.61101562 35.13172607 18.22203125 35.26345215 18.8515625 35.39916992 C25.85800659 37.02557776 32.62330748 39.13555657 39.4375 41.42578125 C40.37142578 41.73836884 41.30535156 42.05095642 42.26757812 42.37301636 C46.17688402 43.68412172 50.0846094 44.99926127 53.98583984 46.33422852 C56.86123614 47.31567248 59.7423554 48.27837233 62.625 49.23828125 C63.50728271 49.54542557 64.38956543 49.85256989 65.29858398 50.16902161 C66.12044189 50.43978012 66.9422998 50.71053864 67.7890625 50.98950195 C68.50787598 51.23360306 69.22668945 51.47770416 69.96728516 51.72920227 C72.60143339 52.0801228 73.78044032 51.39548732 76 50 C77.23543578 48.90483204 78.44259255 47.77721832 79.625 46.625 C87.26526494 39.8587137 95.94076262 37.90855239 106 38 C116.42139837 38.67840128 125.2900808 42.7113783 132.4375 50.375 C140.13899354 59.7774369 143.09601606 69.89323803 142 82 C140.99445721 87.03505367 139.58996013 91.29800352 136.625 95.5 C134.2282533 100.66222366 136.11230992 103.8184493 138 109 C139.94095447 113.97202441 141.98903799 118.89490321 144.0625 123.8125 C144.61049304 125.1215494 145.15802197 126.43079318 145.70507812 127.74023438 C146.70681802 130.13772184 147.71170204 132.53378494 148.71899414 134.92895508 C149.14172607 135.9423999 149.56445801 136.95584473 150 138 C150.38599365 138.89678467 150.7719873 139.79356934 151.16967773 140.7175293 C152 143 152 143 152 146 C152.57105469 145.95359375 153.14210937 145.9071875 153.73046875 145.859375 C163.64267573 145.41813208 173.5366561 147.82312751 181.2265625 154.3125 C189.82851656 162.49761929 194.91805392 171.37597317 195.3125 183.5 C195.15456717 194.09729307 191.45413974 203.48501014 184 211 C175.47707557 218.7576006 165.79295055 222.43458318 154.23046875 222.2109375 C145.71768586 221.40587572 138.58290966 218.43157772 132 213 C131.2575 212.030625 130.515 211.06125 129.75 210.0625 C123.99235121 205.74426341 113.91250468 208.97752757 107.00978565 209.9428339 C102.52032136 210.58832828 98.03566947 211.2649813 93.55078125 211.94140625 C91.60123625 212.23187948 89.65162461 212.52190573 87.70195007 212.81150818 C82.61086988 213.568748 77.52057903 214.33116045 72.43048096 215.0949707 C64.24630528 216.32215649 56.0609382 217.54136918 47.8755703 218.76057243 C45.02018306 219.18664594 42.16513618 219.61494322 39.31013489 220.04359436 C37.57305546 220.30327662 35.83596982 220.5629174 34.09887695 220.82250977 C33.3036261 220.94249832 32.50837524 221.06248688 31.68902588 221.18611145 C26.22679186 222 26.22679186 222 24 222 C23.85304688 222.54527344 23.70609375 223.09054688 23.5546875 223.65234375 C20.1871156 234.97435272 13.96692532 242.66373469 3.57421875 248.3203125 C-6.28384067 252.59862053 -18.37895927 252.79556666 -28.4375 249.0625 C-37.10675407 244.84695612 -45.0409054 237.9409553 -49 229 C-52.63842933 218.29188238 -52.69460825 205.95860871 -47.6640625 195.71484375 C-41.63014909 185.87078314 -34.06795523 180.04773599 -23.1171875 176.3671875 C-11.9144002 174.42426867 -0.99051853 175.58386457 8.68359375 181.6953125 C16.4285585 187.38032377 20.52238855 194.18974593 24 203 C33.83556609 202.47415567 43.45765526 201.33559073 53.18652344 199.85711479 C55.62493154 199.4866075 58.06426545 199.12280971 60.50390625 198.76051331 C65.67016081 197.99206422 70.83511811 197.21511255 76 196.4375 C82.02005636 195.53204607 88.04062003 194.63016141 94.06222534 193.73506355 C96.45684671 193.37753671 98.85061692 193.01466495 101.24438477 192.651474 C102.71497007 192.43203714 104.18559 192.21283219 105.65625 191.99389648 C106.93306641 191.80149887 108.20988281 191.60910126 109.52539062 191.41087341 C112.72583581 191.03241998 115.78169199 190.92132415 119 191 C118.91298828 189.47632813 118.91298828 189.47632813 118.82421875 187.921875 C118.36824401 176.48764608 119.93978967 167.48946852 127.5625 158.4375 C129.85342185 155.97727214 132.27276442 153.96337091 135 152 C134.28955789 147.32392625 132.61101436 143.20748712 130.83984375 138.85546875 C130.53051407 138.08568192 130.22118439 137.31589508 129.90248108 136.52278137 C128.91820532 134.07603234 127.9279469 131.63175656 126.9375 129.1875 C126.26718129 127.52424842 125.597255 125.86083863 124.92773438 124.19726562 C123.28969625 120.12966374 121.64629005 116.06426867 120 112 C119.02160156 112.21112427 119.02160156 112.21112427 118.0234375 112.42651367 C104.08090639 115.34277502 92.50667306 114.52710311 80.3203125 106.71484375 C72.88922299 101.22284325 68.21349658 93.9836055 66 85 C65.46980802 79.33498664 65.69756884 73.67226451 66 68 C64.73164307 67.73719238 63.46328613 67.47438477 62.15649414 67.20361328 C56.83230593 66.01826694 51.68340936 64.41793987 46.49609375 62.7421875 C45.05025658 62.2803154 45.05025658 62.2803154 43.57521057 61.80911255 C40.52810444 60.83478452 37.48278992 59.85498804 34.4375 58.875 C32.3588404 58.20927173 30.28006543 57.54390359 28.20117188 56.87890625 C23.1327734 55.25676488 18.06583033 53.63014265 13 52 C12.35208496 52.75200684 11.70416992 53.50401367 11.03662109 54.27880859 C10.16602051 55.26703613 9.29541992 56.25526367 8.3984375 57.2734375 C7.54427246 58.25231934 6.69010742 59.23120117 5.81005859 60.23974609 C-2.2047329 68.11248568 -11.82532005 70.3256672 -22.64648438 70.38720703 C-32.55668777 70.18837743 -41.9396747 65.99714565 -49 59 C-56.70873475 49.39481114 -59.98305165 39.30635023 -59 27 C-56.99852713 16.07670739 -51.63173437 7.25660501 -42.6796875 0.6953125 C-29.902379 -7.38829084 -13.00030639 -8.03179849 0 0 Z " fill="#1D1D1A" transform="translate(60,5)"/>
<path d="M0 0 C5.26457574 2.99462709 9.51915355 7.7894024 11.75 13.4375 C12.60880634 21.07688194 12.61548105 27.3244597 7.75 33.4375 C2.62224058 38.66246813 -1.69607694 41.4698747 -9.125 41.75 C-16.61830734 41.57211733 -21.97304732 38.71445268 -27.25 33.4375 C-30.96770411 28.38464518 -31.96309426 23.39778292 -31.6875 17.1796875 C-30.77753835 11.47617785 -28.4653273 7.28037297 -24.01953125 3.58203125 C-16.60009713 -1.51353444 -8.62571985 -3.88905288 0 0 Z " fill="#FB9500" transform="translate(56.25,198.5625)"/>
<path d="M0 0 C4.50334071 3.23992499 7.52260466 7.39203273 9.26953125 12.6328125 C10.24519638 20.22906247 8.89362221 26.45672779 4.26953125 32.6328125 C-1.74790659 37.82825358 -7.18747384 40.0214478 -15.1015625 39.90625 C-21.94408401 39.19454643 -26.27780337 35.60815543 -30.50390625 30.4140625 C-34.60838076 24.45342435 -34.41518361 18.72264481 -33.73046875 11.6328125 C-31.78783806 5.09533678 -26.08429697 0.62698063 -20.41796875 -2.7421875 C-12.88530033 -4.49397085 -6.79159107 -3.74339666 0 0 Z " fill="#FBBE07" transform="translate(51.73046875,19.3671875)"/>
<path d="M0 0 C5.66168774 3.35079478 10.82874026 8.37264354 12.63671875 14.87890625 C13.71485008 21.54477197 12.41029265 27.15249696 8.76953125 32.828125 C5.60021304 36.87261688 2.20783907 39.79262029 -2.9375 40.8125 C-16.42850833 42.00982699 -16.42850833 42.00982699 -21.9375 37.8125 C-27.50801484 32.33680243 -30.91391008 27.93556286 -31.3125 20 C-31.15904351 13.92492838 -29.47607907 9.46298859 -25.25390625 5.0546875 C-17.99420111 -1.40879191 -9.4724882 -3.67215401 0 0 Z " fill="#CAD938" transform="translate(172.9375,61.1875)"/>
<path d="M0 0 C5.90524312 2.7046915 10.10191083 7.26443073 12.546875 13.3125 C13.30531288 19.97969815 13.44822778 26.68749637 9.95703125 32.59375 C6.62955509 36.64939961 2.51139063 39.65766146 -2.453125 41.3125 C-9.86710458 41.98250408 -16.36875952 41.95726115 -22.453125 37.3125 C-27.72615885 32.34549043 -30.47185992 27.80343409 -30.828125 20.5 C-30.67466851 14.42492838 -28.99170407 9.96298859 -24.76953125 5.5546875 C-17.44289035 -0.96838633 -9.71372398 -2.72231755 0 0 Z " fill="#FC5621" transform="translate(225.453125,168.6875)"/>
</svg>
