<?xml version="1.0" encoding="UTF-8" standalone="no"?>
<!DOCTYPE svg PUBLIC '-//W3C//DTD SVG 1.1//EN' 'http://www.w3.org/Graphics/SVG/1.1/DTD/svg11.dtd' [
	<!ENTITY stroke_color "#010101">
	<!ENTITY fill_color "#000000">
]>
<svg xmlns="http://www.w3.org/2000/svg" xmlns:xlink="http://www.w3.org/1999/xlink" version="1.1" x="0px" y="0px" viewBox="0 0 32 40" enable-background="new 0 0 32 32" xml:space="preserve">
  <!-- Connecting lines -->
  <g style="fill:&stroke_color;;">
    <path d="M4.009,25.493c-0.17,-0.029,-0.342,-0.043,-0.509,-0.043c-0.154,0,-0.308,0.012,-0.46,0.035l-0.117,0.018l0.002,-0.118c0.09,-5.346,0.42,-9.356,1.008,-12.26c0.276,-1.361,0.619,-2.486,1.02,-3.344l0.083,-0.178l0.095,0.172c0.178,0.321,0.41,0.605,0.69,0.844l0.054,0.046l-0.026,0.066c-0.281,0.711,-0.53,1.596,-0.74,2.632c-0.561,2.771,-0.892,6.819,-0.983,12.034l-0.002,0.116L4.009,25.493zM21.526,23.393c-1.885,-1.484,-3.887,-4.18,-6.007,-7.034c-1.733,-2.335,-3.525,-4.748,-5.152,-6.263l-0.062,-0.057l0.046,-0.071c0.189,-0.288,0.326,-0.603,0.409,-0.935l0.039,-0.16l0.124,0.108c1.756,1.541,3.603,4.028,5.558,6.661c1.781,2.398,3.799,5.117,5.512,6.586l0.061,0.053l-0.039,0.071c-0.166,0.306,-0.277,0.635,-0.33,0.979l-0.026,0.169L21.526,23.393zM27.049,21.856c-0.221,-0.266,-0.482,-0.491,-0.778,-0.67l-0.071,-0.043l0.029,-0.078c0.249,-0.673,0.472,-1.49,0.662,-2.429c0.561,-2.77,0.892,-6.819,0.983,-12.034l0.002,-0.116l0.115,0.019c0.17,0.029,0.342,0.043,0.509,0.043c0.154,0,0.308,-0.012,0.46,-0.035l0.117,-0.018l-0.002,0.118c-0.09,5.346,-0.42,9.356,-1.008,12.26c-0.236,1.164,-0.521,2.158,-0.849,2.955l-0.063,0.154L27.049,21.856z" />
  </g>
  <!-- Dots -->
  <g style="fill:&fill_color;;">
    <path d="M3.5,30.75c-1.241,0,-2.25,-1.009,-2.25,-2.25s1.009,-2.25,2.25,-2.25s2.25,1.009,2.25,2.25S4.741,30.75,3.5,30.75zM28.5,5.75c-1.241,0,-2.25,-1.009,-2.25,-2.25s1.009,-2.25,2.25,-2.25s2.25,1.009,2.25,2.25S29.741,5.75,28.5,5.75zM7.8,10.55c-1.241,0,-2.25,-1.009,-2.25,-2.25S6.559,6.05,7.8,6.05s2.25,1.009,2.25,2.25S9.041,10.55,7.8,10.55zM24.7,26.05c-1.241,0,-2.25,-1.009,-2.25,-2.25s1.009,-2.25,2.25,-2.25s2.25,1.009,2.25,2.25S25.941,26.05,24.7,26.05z" fill-rule="evenodd" />
  </g>
</svg>
